<?xml version="1.0" standalone="no"?>
<!DOCTYPE svg PUBLIC "-//W3C//DTD SVG 20010904//EN"
 "http://www.w3.org/TR/2001/REC-SVG-20010904/DTD/svg10.dtd">
<svg version="1.0" xmlns="http://www.w3.org/2000/svg"
 width="1200.000000pt" height="1200.000000pt" viewBox="0 0 1200.000000 1200.000000"
 preserveAspectRatio="xMidYMid meet">
<metadata>
Created by potrace 1.14, written by Peter Selinger 2001-2017
</metadata>
<g transform="translate(0.000000,1200.000000) scale(0.100000,-0.100000)"
fill="#000000" stroke="none">
<path d="M6285 9804 c-330 -163 -604 -296 -610 -297 -5 -1 -12 -5 -15 -8 -3
-3 -356 -178 -785 -389 -429 -211 -944 -464 -1145 -562 -201 -99 -369 -180
-375 -181 -5 -1 -12 -5 -15 -8 -14 -17 -664 -328 -674 -322 -6 3 -8 3 -4 -1 4
-5 -149 -86 -340 -180 -191 -95 -353 -180 -361 -190 -11 -13 -17 -14 -30 -4
-14 11 -14 11 -3 -4 11 -14 9 -22 -12 -55 -52 -79 -53 12 26 -1976 l75 -1847
23 -25 c28 -29 67 -32 113 -9 18 9 100 56 182 104 83 48 317 183 520 300 204
117 415 239 470 271 743 433 890 515 912 506 12 -6 20 -14 16 -20 -3 -6 -1 -7
5 -3 6 3 26 -3 44 -14 l34 -19 377 220 c208 121 383 216 389 213 6 -4 9 -3 5
2 -3 5 87 63 200 129 113 66 213 125 221 131 12 9 5 17 -38 43 l-53 33 49 27
c27 14 76 41 109 60 33 18 51 25 41 17 -17 -14 -17 -16 -4 -16 9 0 20 5 23 10
4 6 12 7 18 3 8 -4 7 -1 -1 9 -19 23 8 36 84 41 12 1 19 7 17 14 -4 10 -12 9
-34 -3 -16 -8 -29 -13 -29 -10 0 2 42 27 93 56 50 29 111 64 135 78 36 20 41
21 35 6 -4 -12 -3 -15 5 -10 7 4 12 13 12 21 0 15 151 106 184 110 31 4 80 25
73 31 -3 3 -19 -2 -36 -11 -17 -8 -31 -14 -31 -11 0 3 194 118 242 143 4 2 5
-6 3 -18 -2 -12 -1 -18 3 -15 4 4 8 12 8 17 1 5 2 13 3 19 2 15 58 41 75 34 9
-3 16 -1 16 6 0 6 -4 8 -10 5 -5 -3 -10 -4 -10 -2 0 11 73 47 82 41 6 -4 8 -2
5 3 -8 13 20 26 35 16 7 -3 8 -1 4 5 -8 14 30 36 46 26 6 -4 8 -3 5 4 -4 6 17
23 48 41 59 34 70 37 59 19 -4 -7 -3 -8 5 -4 6 4 9 11 6 16 -8 12 53 43 67 34
6 -4 8 -3 4 4 -8 13 5 22 41 28 34 6 68 25 38 21 -11 -1 -26 -6 -33 -11 -8 -4
3 14 22 42 73 101 68 -51 60 1817 -7 1769 -6 1722 -49 1739 -9 3 -29 6 -43 5
-15 0 -297 -133 -627 -295z m364 12 c-2 -2 -15 -9 -29 -15 -24 -11 -24 -11 -6
3 16 13 49 24 35 12z m-80 -40 c-10 -9 -69 -36 -69 -32 0 7 52 35 64 36 5 0 7
-2 5 -4z m-87 -43 c-6 -2 -10 -9 -7 -14 4 -5 -2 -6 -11 -2 -13 5 -15 3 -9 -7
5 -9 4 -11 -3 -6 -6 4 -25 0 -41 -9 -17 -8 -34 -15 -38 -15 -11 1 100 59 112
59 6 0 4 -3 -3 -6z m-136 -68 c-11 -8 -25 -15 -30 -15 -6 1 0 7 14 15 32 19
40 18 16 0z m-216 -105 c-8 -5 -19 -10 -25 -10 -5 0 -3 5 5 10 8 5 20 10 25
10 6 0 3 -5 -5 -10z m-74 -35 c-11 -8 -25 -15 -30 -15 -6 1 0 7 14 15 32 19
40 18 16 0z m-51 -25 c-3 -5 -12 -10 -18 -10 -7 0 -6 4 3 10 19 12 23 12 15 0z
m-80 -40 c-3 -5 -12 -10 -18 -10 -7 0 -6 4 3 10 19 12 23 12 15 0z m-95 -44
c0 -2 -7 -7 -16 -10 -8 -3 -12 -2 -9 4 6 10 25 14 25 6z m-158 -79 c-12 -7
-19 -16 -15 -21 4 -4 -1 -4 -11 0 -17 6 -16 8 5 20 13 7 29 13 34 13 6 0 0 -5
-13 -12z m-72 -32 c0 -6 -56 -35 -67 -35 -4 1 8 9 27 20 39 22 40 22 40 15z
m-85 -45 c-3 -5 -12 -10 -18 -10 -7 0 -6 4 3 10 19 12 23 12 15 0z m-49 -25
c-11 -8 -25 -15 -30 -15 -6 1 0 7 14 15 32 19 40 18 16 0z m-116 -55 c-14 -11
-29 -20 -35 -20 -5 0 4 9 20 20 38 25 48 25 15 0z m-100 -50 c-8 -5 -19 -10
-25 -10 -5 0 -3 5 5 10 8 5 20 10 25 10 6 0 3 -5 -5 -10z m-45 -20 c-3 -5 -12
-10 -18 -10 -7 0 -6 4 3 10 19 12 23 12 15 0z m-40 -20 c-3 -5 -12 -10 -18
-10 -7 0 -6 4 3 10 19 12 23 12 15 0z m-200 -100 c-3 -5 -12 -10 -18 -10 -7 0
-6 4 3 10 19 12 23 12 15 0z m-76 -34 c-10 -9 -149 -76 -149 -71 0 6 131 74
144 75 5 0 7 -2 5 -4z m-214 -106 c-3 -5 -12 -10 -18 -10 -7 0 -6 4 3 10 19
12 23 12 15 0z m-131 -65 c-10 -8 -23 -15 -28 -15 -6 0 -1 7 10 15 10 8 23 15
28 15 6 0 1 -7 -10 -15z m-74 -35 c-19 -11 -39 -19 -45 -19 -5 0 6 8 25 19 19
11 40 19 45 19 6 0 -6 -8 -25 -19z m-60 -25 c0 -2 -18 -14 -40 -25 -22 -11
-40 -18 -40 -15 0 2 17 13 38 24 42 23 42 23 42 16z m-204 -104 c-6 -10 -66
-33 -66 -26 0 3 15 11 33 19 40 18 39 18 33 7z m-76 -35 c0 -2 -7 -7 -16 -10
-8 -3 -12 -2 -9 4 6 10 25 14 25 6z m-41 -20 c-10 -9 -69 -36 -69 -32 0 7 52
35 64 36 5 0 7 -2 5 -4z m-89 -46 c-8 -5 -19 -10 -25 -10 -5 0 -3 5 5 10 8 5
20 10 25 10 6 0 3 -5 -5 -10z m-45 -20 c-3 -5 -12 -10 -18 -10 -7 0 -6 4 3 10
19 12 23 12 15 0z m-40 -20 c-3 -5 -12 -10 -18 -10 -7 0 -6 4 3 10 19 12 23
12 15 0z m-49 -25 c-11 -8 -25 -15 -30 -15 -6 1 0 7 14 15 32 19 40 18 16 0z
m-71 -35 c-3 -5 -12 -10 -18 -10 -7 0 -6 4 3 10 19 12 23 12 15 0z m-165 -80
c-19 -11 -39 -19 -45 -19 -5 0 6 8 25 19 19 11 40 19 45 19 6 0 -6 -8 -25 -19z
m-60 -25 c0 -6 -56 -35 -67 -35 -4 1 8 9 27 20 39 22 40 22 40 15z m-90 -49
c0 -2 -7 -7 -16 -10 -8 -3 -12 -2 -9 4 6 10 25 14 25 6z m3357 -143 c-2 -27
-3 -5 -3 47 0 52 1 74 3 48 2 -27 2 -69 0 -95z m-3547 53 c0 -2 -7 -7 -16 -10
-8 -3 -12 -2 -9 4 6 10 25 14 25 6z m-41 -20 c-2 -2 -15 -9 -29 -15 -24 -11
-24 -11 -6 3 16 13 49 24 35 12z m-89 -46 c-8 -5 -19 -10 -25 -10 -5 0 -3 5 5
10 8 5 20 10 25 10 6 0 3 -5 -5 -10z m-40 -15 c0 -6 -56 -35 -67 -35 -4 1 8 9
27 20 39 22 40 22 40 15z m3717 -142 c-2 -21 -4 -6 -4 32 0 39 2 55 4 38 2
-18 2 -50 0 -70z m-3937 33 c0 -2 -7 -7 -16 -10 -8 -3 -12 -2 -9 4 6 10 25 14
25 6z m-110 -56 c-19 -11 -39 -19 -45 -19 -5 0 6 8 25 19 19 11 40 19 45 19 6
0 -6 -8 -25 -19z m-65 -30 c-3 -5 -12 -10 -18 -10 -7 0 -6 4 3 10 19 12 23 12
15 0z m-80 -40 c-3 -5 -12 -10 -18 -10 -7 0 -6 4 3 10 19 12 23 12 15 0z
m-139 -69 c-6 -9 -46 -22 -46 -15 0 3 10 9 23 14 29 11 29 11 23 1z m-176 -86
c-36 -19 -69 -34 -75 -34 -5 0 19 15 55 34 36 19 70 34 75 34 6 0 -19 -15 -55
-34z m-135 -65 c-3 -5 -12 -10 -18 -10 -7 0 -6 4 3 10 19 12 23 12 15 0z m-49
-32 c4 -6 3 -8 -3 -5 -13 8 -69 -53 -86 -92 -6 -14 -14 -80 -17 -146 l-6 -120
-2 111 c-2 127 8 161 64 224 41 45 40 44 50 28z m4691 -680 c-1 -123 -2 -25
-2 217 0 242 1 342 2 223 2 -119 2 -317 0 -440z m-4790 135 c-2 -32 -3 -6 -3
57 0 63 1 89 3 58 2 -32 2 -84 0 -115z m10 -240 c-2 -32 -3 -6 -3 57 0 63 1
89 3 58 2 -32 2 -84 0 -115z m10 -240 c-2 -32 -3 -6 -3 57 0 63 1 89 3 58 2
-32 2 -84 0 -115z m10 -235 c-2 -35 -3 -9 -3 57 0 66 1 94 3 63 2 -32 2 -86 0
-120z m4691 138 c-7 -8 -15 -12 -17 -11 -5 6 10 25 20 25 5 0 4 -6 -3 -14z
m-33 -26 c-3 -5 -12 -10 -18 -10 -7 0 -6 4 3 10 19 12 23 12 15 0z m-50 -30
c-3 -5 -12 -10 -18 -10 -7 0 -6 4 3 10 19 12 23 12 15 0z m-65 -35 c0 -2 -10
-9 -22 -15 -22 -11 -22 -10 -4 4 21 17 26 19 26 11z m-125 -75 c-3 -5 -12 -10
-18 -10 -7 0 -6 4 3 10 19 12 23 12 15 0z m-45 -25 c0 -2 -10 -9 -22 -15 -22
-11 -22 -10 -4 4 21 17 26 19 26 11z m-4363 -192 c-2 -32 -3 -6 -3 57 0 63 1
89 3 58 2 -32 2 -84 0 -115z m4293 152 c0 -2 -10 -9 -22 -15 -22 -11 -22 -10
-4 4 21 17 26 19 26 11z m-195 -115 c-3 -5 -12 -10 -18 -10 -7 0 -6 4 3 10 19
12 23 12 15 0z m-165 -95 c0 -2 -13 -11 -30 -20 -38 -19 -40 -11 -2 9 31 17
32 18 32 11z m-3923 -177 c-2 -35 -3 -9 -3 57 0 66 1 94 3 63 2 -32 2 -86 0
-120z m3713 57 c0 -2 -10 -9 -22 -15 -22 -11 -22 -10 -4 4 21 17 26 19 26 11z
m-60 -29 c0 -2 -8 -10 -17 -17 -16 -13 -17 -12 -4 4 13 16 21 21 21 13z
m-3643 -268 c-2 -35 -3 -9 -3 57 0 66 1 94 3 63 2 -32 2 -86 0 -120z m10 -240
c-2 -35 -3 -9 -3 57 0 66 1 94 3 63 2 -32 2 -86 0 -120z m3053 167 c0 -2 -10
-9 -22 -15 -22 -11 -22 -10 -4 4 21 17 26 19 26 11z m-50 -30 c0 -2 -10 -9
-22 -15 -22 -11 -22 -10 -4 4 21 17 26 19 26 11z m-190 -110 c0 -2 -10 -9 -22
-15 -22 -11 -22 -10 -4 4 21 17 26 19 26 11z m-50 -30 c0 -2 -10 -9 -22 -15
-22 -11 -22 -10 -4 4 21 17 26 19 26 11z m-100 -59 c0 -2 -7 -7 -16 -10 -8 -3
-12 -2 -9 4 6 10 25 14 25 6z m-2653 -183 c-2 -32 -3 -6 -3 57 0 63 1 89 3 58
2 -32 2 -84 0 -115z m10 -245 c-2 -35 -3 -7 -3 62 0 69 1 97 3 63 2 -35 2 -91
0 -125z m2053 87 c0 -2 -10 -9 -22 -15 -22 -11 -22 -10 -4 4 21 17 26 19 26
11z m-2043 -322 c-2 -32 -3 -6 -3 57 0 63 1 89 3 58 2 -32 2 -84 0 -115z
m1763 162 c0 -2 -10 -9 -22 -15 -22 -11 -22 -10 -4 4 21 17 26 19 26 11z m-55
-35 c-3 -5 -12 -10 -18 -10 -7 0 -6 4 3 10 19 12 23 12 15 0z m-240 -140 c-3
-5 -12 -10 -18 -10 -7 0 -6 4 3 10 19 12 23 12 15 0z m-65 -35 c0 -2 -13 -11
-30 -20 -38 -19 -40 -11 -2 9 31 17 32 18 32 11z m-1393 -192 c-2 -32 -3 -6
-3 57 0 63 1 89 3 58 2 -32 2 -84 0 -115z m1318 147 c-3 -5 -12 -10 -18 -10
-7 0 -6 4 3 10 19 12 23 12 15 0z m-285 -164 c0 -2 -7 -7 -16 -10 -8 -3 -12
-2 -9 4 6 10 25 14 25 6z m-1023 -228 c-2 -29 -3 -6 -3 52 0 58 1 81 3 53 2
-29 2 -77 0 -105z m663 18 c0 -2 -7 -7 -16 -10 -8 -3 -12 -2 -9 4 6 10 25 14
25 6z m-648 -208 c2 -47 0 -81 -4 -75 -4 7 -7 57 -6 112 1 111 6 95 10 -37z
m393 73 c3 -5 2 -12 -3 -15 -5 -3 -9 1 -9 9 0 17 3 19 12 6z m-95 -66 c0 -2
-10 -9 -22 -15 -22 -11 -22 -10 -4 4 21 17 26 19 26 11z m-140 -80 c0 -2 -10
-9 -22 -15 -22 -11 -22 -10 -4 4 21 17 26 19 26 11z m-125 -35 c3 -6 -1 -7 -9
-4 -18 7 -21 14 -7 14 6 0 13 -4 16 -10z"/>
<path d="M6227 9809 c7 -7 15 -10 18 -7 3 3 -2 9 -12 12 -14 6 -15 5 -6 -5z"/>
<path d="M7140 6486 c0 -2 7 -7 16 -10 8 -3 12 -2 9 4 -6 10 -25 14 -25 6z"/>
<path d="M7190 6455 c0 -7 61 -37 66 -33 2 3 -12 12 -31 21 -19 9 -35 15 -35
12z"/>
<path d="M6830 6430 c-8 -5 -10 -10 -5 -10 6 0 17 5 25 10 8 5 11 10 5 10 -5
0 -17 -5 -25 -10z"/>
<path d="M7300 6391 c24 -20 40 -26 40 -16 0 2 -15 12 -32 20 l-33 16 25 -20z"/>
<path d="M6738 6379 c-41 -21 -49 -30 -20 -23 16 5 73 44 62 43 -3 0 -22 -9
-42 -20z"/>
<path d="M7420 6326 c0 -2 7 -7 16 -10 8 -3 12 -2 9 4 -6 10 -25 14 -25 6z"/>
<path d="M7045 6301 c3 -16 -13 -30 -75 -66 -45 -26 -85 -43 -91 -39 -7 4 -9
3 -5 -4 8 -14 -30 -36 -46 -26 -7 4 -8 3 -4 -4 8 -14 -50 -46 -66 -36 -7 5 -8
3 -3 -6 6 -10 4 -12 -9 -7 -9 4 -15 3 -12 -2 4 -5 -15 -21 -40 -36 -38 -22
-48 -25 -56 -14 -8 11 -9 10 -4 -3 4 -13 -9 -25 -49 -48 -30 -17 -60 -28 -66
-24 -8 4 -9 3 -5 -4 4 -6 -6 -18 -24 -27 -33 -17 -38 -36 -15 -55 8 -7 12 -17
8 -23 -3 -6 -1 -7 5 -3 18 11 116 -45 100 -57 -9 -6 -8 -7 5 -3 10 3 41 -7 73
-25 40 -23 62 -30 82 -25 80 20 131 8 95 -21 -16 -13 -16 -13 5 -3 22 11 22
13 8 29 -9 10 -13 21 -9 26 5 4 -3 2 -15 -4 -45 -24 -32 -3 15 24 26 15 128
75 225 132 100 59 183 101 190 97 7 -4 8 -3 4 4 -8 13 50 46 65 37 5 -4 8 -1
7 6 -2 6 3 14 11 17 9 3 11 0 6 -9 -5 -8 -4 -11 0 -6 21 18 14 47 -18 70 -78
58 -215 127 -251 127 -21 0 -35 4 -31 9 3 5 1 12 -4 16 -6 3 -8 -3 -6 -14z"/>
<path d="M6613 6295 c0 -7 6 -11 14 -8 7 3 13 6 13 8 0 2 -6 5 -13 8 -8 3 -14
-1 -14 -8z"/>
<path d="M6965 6260 c3 -5 8 -10 11 -10 2 0 4 5 4 10 0 6 -5 10 -11 10 -5 0
-7 -4 -4 -10z"/>
<path d="M7540 6256 c0 -3 9 -10 20 -16 11 -6 20 -8 20 -6 0 3 -9 10 -20 16
-11 6 -20 8 -20 6z"/>
<path d="M6453 6205 c0 -8 4 -12 9 -9 5 3 6 10 3 15 -9 13 -12 11 -12 -6z"/>
<path d="M7290 6206 c0 -2 7 -7 16 -10 8 -3 12 -2 9 4 -6 10 -25 14 -25 6z"/>
<path d="M7645 6190 c3 -5 8 -10 11 -10 2 0 4 5 4 10 0 6 -5 10 -11 10 -5 0
-7 -4 -4 -10z"/>
<path d="M6353 6158 c-34 -20 -40 -32 -23 -43 5 -3 7 0 4 9 -3 9 2 17 14 20
11 4 26 13 32 21 16 19 13 18 -27 -7z"/>
<path d="M7740 6136 c0 -2 7 -7 16 -10 8 -3 12 -2 9 4 -6 10 -25 14 -25 6z"/>
<path d="M6283 6118 c-13 -6 -23 -15 -23 -20 0 -5 11 -1 25 8 37 24 35 30 -2
12z"/>
<path d="M7780 6115 c0 -2 10 -10 23 -16 20 -11 21 -11 8 4 -13 16 -31 23 -31
12z"/>
<path d="M7400 6072 c-8 -9 -14 -20 -13 -24 4 -12 -36 -30 -49 -22 -7 5 -8 3
-3 -6 6 -10 4 -12 -9 -7 -9 4 -15 3 -12 -2 8 -12 -63 -53 -76 -45 -7 5 -8 2
-3 -6 6 -10 4 -12 -9 -7 -10 4 -15 3 -11 -3 3 -6 -1 -13 -9 -16 -10 -4 -15
-17 -14 -34 1 -16 6 -26 10 -24 13 8 159 -77 151 -88 -3 -7 -1 -8 6 -4 6 4 26
-2 45 -13 45 -28 70 -26 133 9 30 17 59 28 65 24 6 -4 8 -3 5 4 -6 9 114 86
135 87 3 0 10 4 15 9 5 5 3 6 -5 2 -10 -6 -13 -2 -10 15 2 16 -2 24 -12 25
-29 2 -31 4 -20 24 9 16 8 18 -5 14 -8 -3 -12 -10 -9 -15 11 -18 -11 -8 -109
47 -100 57 -124 62 -182 39 -20 -8 -20 -8 0 8 11 8 18 18 15 20 -3 3 -12 -2
-20 -11z"/>
<path d="M7855 6070 c3 -5 11 -10 16 -10 6 0 7 5 4 10 -3 6 -11 10 -16 10 -6
0 -7 -4 -4 -10z"/>
<path d="M6120 6023 c-25 -15 -46 -30 -48 -35 -2 -4 -10 -8 -17 -8 -19 0 -28
-17 -14 -26 8 -4 9 -3 5 4 -4 7 -2 12 5 12 7 0 21 7 30 16 10 9 29 17 41 18
13 1 22 7 21 14 -2 7 4 12 12 12 8 0 15 5 15 10 0 13 2 14 -50 -17z"/>
<path d="M7940 6020 c0 -5 5 -10 11 -10 5 0 7 5 4 10 -3 6 -8 10 -11 10 -2 0
-4 -4 -4 -10z"/>
<path d="M7200 6010 c-9 -6 -10 -10 -3 -10 6 0 15 5 18 10 8 12 4 12 -15 0z"/>
<path d="M7627 6009 c7 -7 15 -10 18 -7 3 3 -2 9 -12 12 -14 6 -15 5 -6 -5z"/>
<path d="M6437 5979 c7 -7 15 -10 18 -7 3 3 -2 9 -12 12 -14 6 -15 5 -6 -5z"/>
<path d="M8020 5976 c0 -2 7 -7 16 -10 8 -3 12 -2 9 4 -6 10 -25 14 -25 6z"/>
<path d="M6422 5965 c4 -4 1 -20 -7 -35 -12 -23 -12 -27 0 -27 8 0 12 4 9 8
-3 5 0 17 6 28 7 15 7 22 -2 27 -7 4 -10 4 -6 -1z"/>
<path d="M6455 5950 c-10 -11 -16 -22 -14 -24 2 -2 12 7 22 20 22 29 17 32 -8
4z"/>
<path d="M6006 5952 c-3 -5 1 -9 9 -9 8 0 12 4 9 9 -3 4 -7 8 -9 8 -2 0 -6 -4
-9 -8z"/>
<path d="M7099 5944 c-7 -9 -6 -12 6 -10 22 3 40 23 20 23 -8 0 -20 -6 -26
-13z"/>
<path d="M8075 5940 c3 -5 8 -10 11 -10 2 0 4 5 4 10 0 6 -5 10 -11 10 -5 0
-7 -4 -4 -10z"/>
<path d="M5905 5898 c-27 -16 -42 -27 -32 -24 9 3 17 1 17 -5 0 -6 5 -7 10 -4
6 4 8 11 5 16 -4 5 0 9 8 9 8 0 22 9 32 20 23 25 21 25 -40 -12z"/>
<path d="M6995 5890 c-16 -11 -25 -20 -20 -20 6 1 19 7 29 15 10 8 23 12 29 8
6 -3 7 -1 3 5 -9 15 -5 16 -41 -8z"/>
<path d="M5812 5848 c-17 -11 -30 -24 -27 -29 3 -4 15 1 26 12 11 11 23 18 28
15 4 -3 8 1 8 9 0 8 -1 15 -1 14 -1 0 -16 -10 -34 -21z"/>
<path d="M7210 5867 c0 -3 12 -12 26 -22 15 -9 23 -12 20 -6 -7 11 -46 35 -46
28z"/>
<path d="M6446 5847 c3 -10 9 -15 12 -12 3 3 0 11 -7 18 -10 9 -11 8 -5 -6z"/>
<path d="M7758 5853 c7 -3 16 -2 19 1 4 3 -2 6 -13 5 -11 0 -14 -3 -6 -6z"/>
<path d="M7797 5844 c-15 -8 -33 -12 -39 -8 -6 4 -8 3 -5 -3 9 -14 -249 -167
-265 -157 -7 5 -8 3 -3 -6 5 -9 2 -10 -13 -6 -11 4 -23 2 -27 -3 -3 -7 0 -8 9
-5 41 16 7 -9 -89 -65 -58 -34 -111 -59 -117 -55 -6 4 -8 3 -5 -3 4 -5 -5 -16
-19 -23 -13 -8 -23 -20 -22 -29 2 -8 42 -38 91 -66 48 -28 85 -54 81 -57 -3
-3 3 -5 13 -4 10 0 17 -4 16 -9 -2 -12 18 -16 72 -16 51 0 74 4 69 12 -7 12
104 71 117 63 8 -4 9 -3 5 4 -8 14 50 46 66 36 7 -4 8 -3 4 4 -8 14 30 36 46
26 6 -4 8 -3 5 4 -9 13 131 95 145 85 6 -3 8 -1 5 4 -8 13 20 26 35 16 6 -3 8
-1 5 5 -4 5 13 22 37 36 49 29 61 32 50 14 -4 -7 -3 -8 5 -4 6 4 9 11 6 16 -5
8 43 39 62 41 5 0 10 3 13 6 3 4 -1 3 -7 -1 -7 -4 -13 -2 -13 3 0 6 -25 25
-55 42 -31 18 -52 35 -48 41 3 7 1 8 -5 4 -16 -10 -54 12 -46 26 4 6 3 8 -4 4
-6 -3 -31 5 -56 19 -51 28 -79 31 -119 9z"/>
<path d="M6990 5829 c-22 -18 -22 -19 -3 -10 12 6 25 16 28 21 9 15 3 12 -25
-11z"/>
<path d="M7056 5842 c-10 -2 -41 -17 -67 -34 -27 -16 -54 -26 -60 -22 -8 5 -9
3 -4 -6 6 -10 4 -12 -9 -7 -9 4 -15 3 -12 -2 3 -4 -17 -22 -44 -39 -44 -28
-56 -44 -47 -69 1 -5 5 -7 10 -5 15 5 117 -60 110 -70 -3 -7 -1 -8 5 -4 15 9
54 -12 47 -24 -4 -6 1 -7 11 -3 10 4 15 2 11 -3 -3 -5 2 -11 11 -12 9 -1 33
-4 54 -8 30 -5 47 0 106 35 75 44 87 48 76 29 -4 -8 -3 -10 2 -5 5 5 9 13 9
18 0 5 20 21 45 35 33 19 39 20 23 6 -20 -17 -21 -21 -6 -26 9 -4 18 -4 21 -1
3 3 0 5 -7 5 -7 0 -10 4 -6 10 3 5 12 7 19 4 8 -3 17 -1 21 5 3 6 0 9 -9 5
-11 -4 -14 2 -12 25 1 17 0 28 -2 26 -3 -2 -13 0 -23 6 -15 8 -17 14 -9 29 8
16 8 18 -5 14 -8 -3 -12 -10 -9 -15 9 -16 -7 -10 -62 22 -30 17 -52 34 -49 39
3 4 -3 14 -13 21 -15 13 -16 12 -3 -3 17 -22 9 -23 -29 -3 -46 24 -73 32 -94
27z"/>
<path d="M6277 5829 c-9 -5 -22 -7 -29 -3 -6 4 -8 3 -5 -3 3 -5 -22 -25 -56
-45 -34 -20 -80 -46 -102 -59 -35 -20 -38 -21 -23 -3 12 14 14 23 7 34 -9 13
-10 12 -6 -1 3 -10 -5 -26 -19 -40 -15 -14 -24 -18 -24 -9 0 7 -3 11 -6 7 -3
-3 -3 -11 1 -17 5 -8 11 -8 21 1 11 9 14 8 14 -5 0 -8 11 -23 25 -32 14 -9 22
-21 18 -27 -3 -6 -1 -7 5 -3 15 9 93 -34 85 -47 -3 -6 -1 -7 5 -3 6 4 36 -8
67 -25 51 -29 60 -31 92 -21 20 6 41 8 46 5 6 -3 7 -1 3 5 -8 14 30 36 46 26
7 -5 8 -3 3 6 -6 10 -4 12 9 7 9 -4 15 -3 11 2 -7 13 62 54 76 45 8 -5 9 -3 4
6 -6 10 -4 12 11 6 10 -4 15 -4 11 0 -8 8 11 34 25 34 6 0 6 -6 -1 -14 -9 -11
-9 -16 1 -22 7 -4 10 -4 6 1 -4 4 -3 14 2 20 8 9 1 21 -24 43 -19 17 -32 32
-28 35 4 2 1 2 -6 0 -8 -2 -58 22 -111 52 -99 56 -122 63 -154 44z"/>
<path d="M7625 5819 c-4 -6 -5 -12 -2 -15 2 -3 7 2 10 11 7 17 1 20 -8 4z"/>
<path d="M8307 5809 c7 -7 15 -10 18 -7 3 3 -2 9 -12 12 -14 6 -15 5 -6 -5z"/>
<path d="M8352 5784 c10 -10 20 -16 22 -13 3 3 -5 11 -17 18 -21 13 -21 12 -5
-5z"/>
<path d="M6610 5786 c0 -2 7 -7 16 -10 8 -3 12 -2 9 4 -6 10 -25 14 -25 6z"/>
<path d="M6036 5733 c-6 -14 -5 -15 5 -6 7 7 10 15 7 18 -3 3 -9 -2 -12 -12z"/>
<path d="M5587 5715 c-9 -6 -14 -15 -11 -18 4 -3 -2 -6 -12 -5 -11 1 -38 -10
-62 -24 -37 -22 -41 -27 -27 -38 13 -11 15 -10 10 2 -6 15 59 54 83 49 7 -1
15 5 18 13 3 9 9 14 13 12 4 -3 13 -1 20 3 10 7 10 9 -1 13 -8 3 -21 0 -31 -7z"/>
<path d="M6610 5711 c-7 -15 -7 -22 2 -27 7 -4 10 -4 6 1 -4 4 -3 16 3 26 5
11 7 19 5 19 -3 0 -10 -9 -16 -19z"/>
<path d="M7519 5728 c-9 -30 -6 -37 12 -28 23 13 25 22 2 13 -11 -4 -14 -3 -9
5 4 7 5 12 2 12 -3 0 -6 -1 -7 -2z"/>
<path d="M8510 5690 c8 -5 20 -10 25 -10 6 0 3 5 -5 10 -8 5 -19 10 -25 10 -5
0 -3 -5 5 -10z"/>
<path d="M8580 5656 c0 -3 9 -10 20 -16 11 -6 20 -8 20 -6 0 3 -9 10 -20 16
-11 6 -20 8 -20 6z"/>
<path d="M8210 5643 c-8 -3 -52 -28 -98 -54 -87 -52 -98 -56 -86 -37 4 7 3 8
-5 4 -6 -4 -9 -11 -7 -15 7 -11 -123 -83 -136 -75 -7 4 -8 3 -4 -4 8 -14 -50
-46 -66 -36 -6 4 -8 3 -5 -4 4 -6 -26 -30 -71 -56 -81 -47 -98 -54 -86 -34 4
7 3 8 -5 4 -6 -4 -9 -11 -6 -16 7 -12 -32 -33 -45 -25 -6 4 -9 1 -8 -7 2 -7
-5 -12 -14 -12 -10 1 -15 -3 -11 -9 4 -6 0 -8 -10 -4 -9 3 -19 1 -23 -5 -4 -7
-3 -8 4 -4 7 4 12 5 12 3 0 -3 -25 -19 -56 -37 -45 -25 -59 -29 -66 -18 -6 9
-8 8 -6 -7 2 -12 -3 -20 -12 -20 -8 0 -14 6 -12 13 1 8 -2 11 -8 7 -7 -4 -3
-17 10 -34 10 -16 16 -32 12 -36 -4 -5 -2 -5 5 -1 17 9 75 -22 67 -36 -4 -7
-3 -8 5 -4 6 4 47 -13 91 -38 80 -46 144 -63 171 -44 10 6 6 7 -11 3 l-25 -7
23 17 c12 9 27 13 34 9 7 -5 8 -3 3 6 -6 9 -1 10 16 5 17 -4 20 -3 10 3 -16
12 3 27 21 16 6 -4 8 -3 5 3 -3 5 8 17 25 27 25 15 32 16 40 5 8 -11 9 -11 5
2 -4 11 13 27 59 53 35 21 68 35 73 32 5 -4 13 -1 17 5 5 8 2 10 -7 5 -8 -4
-5 0 6 8 11 9 25 14 32 12 7 -3 12 0 10 7 -1 7 6 11 15 11 10 -1 16 2 13 6 -7
11 24 22 37 13 7 -3 8 -1 4 5 -8 13 30 36 44 27 6 -4 9 -1 8 7 -2 7 5 12 14
12 10 -1 16 1 13 5 -2 4 26 24 62 45 53 31 67 35 75 24 8 -10 9 -9 4 4 -4 13
3 22 25 33 16 9 33 14 37 11 4 -3 14 0 22 6 12 8 11 9 -5 4 -20 -6 -20 -6 0 9
11 9 26 13 34 10 9 -3 12 -3 8 1 -4 4 1 12 10 19 21 16 11 31 -38 56 -24 12
-37 24 -33 31 4 7 3 8 -4 4 -15 -9 -73 24 -65 37 3 6 1 7 -5 3 -16 -10 -54 12
-46 26 4 7 3 8 -4 4 -6 -4 -25 0 -41 9 -17 8 -31 15 -33 14 -2 0 -10 -3 -18
-6z"/>
<path d="M6055 5631 c-3 -5 0 -13 6 -17 7 -4 9 -3 5 4 -3 5 0 13 6 15 9 4 10
6 1 6 -6 1 -14 -3 -18 -8z"/>
<path d="M5864 5622 c4 -7 1 -12 -6 -12 -10 0 -10 -2 1 -9 9 -6 10 -11 2 -15
-6 -4 -16 -4 -23 0 -6 4 -8 3 -5 -3 8 -13 -120 -86 -136 -77 -7 4 -9 3 -4 -1
4 -5 0 -17 -10 -27 -15 -17 -15 -19 0 -36 10 -10 14 -22 10 -26 -4 -4 1 -4 11
0 13 5 17 4 12 -4 -5 -8 -1 -10 10 -5 13 5 15 3 9 -7 -5 -9 -4 -11 3 -6 13 8
56 -17 46 -26 -3 -3 1 -5 8 -5 7 1 43 -14 80 -33 63 -33 69 -34 100 -21 18 7
41 14 50 14 9 1 14 5 12 9 -7 11 35 30 48 22 7 -4 8 -3 4 4 -4 7 -3 12 3 12 5
0 12 -6 15 -12 3 -7 4 -4 3 7 -1 14 4 20 16 19 10 -1 16 1 13 4 -10 9 33 34
46 26 7 -5 8 -3 3 6 -5 9 -1 11 16 6 13 -3 19 -3 13 0 -7 3 -10 13 -7 23 5 20
-22 43 -95 80 -23 12 -40 26 -37 31 4 6 -1 7 -11 3 -11 -4 -15 -3 -10 5 3 6 1
14 -5 18 -8 5 -9 3 -4 -6 4 -7 4 -11 -1 -8 -108 52 -110 52 -158 32 -13 -5
-17 -4 -12 4 3 6 1 14 -5 18 -8 4 -9 3 -5 -4z"/>
<path d="M6639 5623 c-1 -5 -1 -11 0 -15 1 -12 -110 -69 -121 -62 -7 5 -8 2
-3 -6 6 -10 4 -12 -9 -7 -10 4 -15 3 -11 -3 7 -12 -32 -33 -47 -24 -6 4 -8 3
-4 -4 3 -6 2 -13 -4 -17 -21 -13 -8 -35 35 -61 25 -14 42 -31 38 -36 -3 -7 -1
-8 5 -4 16 10 74 -22 66 -36 -4 -7 -3 -8 4 -4 6 4 30 -3 52 -14 38 -19 135
-26 124 -9 -6 10 156 100 167 94 5 -4 8 -2 7 4 -2 5 6 16 17 24 27 21 13 35
-106 102 -55 31 -97 60 -94 65 3 5 0 12 -6 16 -7 4 -10 3 -6 -2 3 -5 -19 -9
-48 -9 -29 0 -51 3 -48 8 2 4 2 7 -1 7 -3 0 -7 -3 -7 -7z"/>
<path d="M8089 5593 c-13 -16 -12 -17 4 -4 9 7 17 15 17 17 0 8 -8 3 -21 -13z"/>
<path d="M7219 5573 c-13 -16 -12 -17 4 -4 16 13 21 21 13 21 -2 0 -10 -8 -17
-17z"/>
<path d="M6866 5569 c2 -4 -1 -9 -8 -11 -7 -3 -4 -7 7 -12 11 -4 16 -4 12 0
-4 4 -2 12 3 19 7 8 5 12 -5 12 -8 0 -12 -4 -9 -8z"/>
<path d="M8720 5571 c0 -9 30 -24 36 -18 2 1 -6 8 -16 15 -11 7 -20 8 -20 3z"/>
<path d="M5539 5533 c-13 -17 -13 -17 6 -3 11 8 22 16 24 17 2 2 0 3 -6 3 -6
0 -17 -8 -24 -17z"/>
<path d="M8770 5546 c0 -3 9 -10 20 -16 11 -6 20 -8 20 -6 0 3 -9 10 -20 16
-11 6 -20 8 -20 6z"/>
<path d="M8832 5504 c10 -10 20 -15 24 -12 3 4 -5 12 -18 18 -22 12 -22 12 -6
-6z"/>
<path d="M6205 5501 c-3 -5 -2 -12 3 -15 5 -3 9 1 9 9 0 17 -3 19 -12 6z"/>
<path d="M7918 5503 c7 -3 16 -2 19 1 4 3 -2 6 -13 5 -11 0 -14 -3 -6 -6z"/>
<path d="M8900 5471 c0 -9 30 -24 36 -18 2 1 -6 8 -16 15 -11 7 -20 8 -20 3z"/>
<path d="M7013 5451 c0 -11 5 -18 9 -15 4 3 5 11 1 19 -7 21 -12 19 -10 -4z"/>
<path d="M8536 5448 c3 -5 10 -6 15 -3 13 9 11 12 -6 12 -8 0 -12 -4 -9 -9z"/>
<path d="M7220 5436 c0 -2 7 -7 16 -10 8 -3 12 -2 9 4 -6 10 -25 14 -25 6z"/>
<path d="M7055 5419 c7 -11 -54 -39 -72 -33 -14 4 -15 4 -4 -4 11 -8 10 -12
-8 -22 -18 -9 -26 -9 -39 2 -15 11 -15 11 -5 -3 11 -14 6 -20 -37 -43 -27 -15
-53 -27 -57 -27 -5 0 -7 -9 -5 -21 3 -15 0 -18 -10 -12 -10 6 -10 5 1 -9 7 -9
17 -14 22 -11 5 3 54 -21 109 -52 99 -56 100 -57 83 -78 -17 -20 -17 -20 1 -5
12 12 30 15 60 12 35 -4 52 1 104 31 34 21 67 34 74 30 7 -4 8 -3 4 4 -8 14
30 36 46 26 7 -4 8 -3 4 4 -7 13 30 36 44 27 5 -3 5 6 0 24 -4 16 -6 31 -4 34
2 2 -2 4 -9 4 -25 0 -127 64 -121 75 4 7 2 8 -4 4 -13 -8 -95 31 -88 42 2 4
-18 7 -44 7 -26 0 -47 -3 -45 -6z"/>
<path d="M7167 5409 c7 -7 15 -10 18 -7 3 3 -2 9 -12 12 -14 6 -15 5 -6 -5z"/>
<path d="M8567 5400 c-21 -11 -43 -17 -50 -14 -7 4 -9 3 -4 -1 4 -5 -13 -21
-38 -37 -49 -30 -60 -34 -49 -16 4 7 3 8 -5 4 -6 -4 -8 -12 -5 -18 5 -7 1 -9
-9 -5 -10 4 -16 2 -14 -5 1 -6 -4 -13 -12 -16 -9 -3 -11 0 -6 9 5 8 4 11 -1 6
-5 -5 -9 -14 -9 -20 0 -7 -6 -12 -14 -12 -8 0 -16 -7 -18 -15 -4 -12 -3 -12 5
-2 7 11 11 10 17 -5 5 -10 9 -21 9 -25 1 -3 5 -10 10 -15 5 -5 6 -2 1 6 -9 16
-8 15 63 -22 32 -17 50 -32 46 -39 -4 -7 -3 -8 4 -4 14 8 73 -24 66 -35 -2 -4
1 -11 7 -15 8 -5 9 -3 4 6 -6 10 -4 11 11 5 47 -20 74 -17 124 14 28 17 56 28
62 25 7 -5 8 -2 3 6 -6 10 -4 12 9 7 9 -4 15 -3 12 2 -4 5 19 23 49 40 56 32
72 62 39 75 -8 3 -12 11 -8 17 4 8 3 9 -4 5 -6 -4 -60 20 -120 54 -59 33 -114
60 -122 60 -9 0 -32 -9 -53 -20z"/>
<path d="M7733 5403 c4 -3 1 -13 -6 -22 -11 -14 -10 -14 5 -2 16 12 16 31 1
31 -4 0 -3 -3 0 -7z"/>
<path d="M5535 5391 c-11 -2 -29 -10 -42 -18 -12 -8 -28 -11 -34 -7 -7 4 -9 3
-6 -4 4 -6 -17 -24 -49 -42 -45 -25 -59 -29 -66 -18 -7 10 -8 9 -6 -3 2 -9 -7
-25 -19 -35 -29 -25 -35 -60 -9 -56 12 2 16 -1 10 -9 -4 -8 -3 -10 4 -5 14 9
104 -42 96 -55 -3 -5 3 -6 12 -2 12 4 15 3 10 -5 -5 -8 -1 -10 10 -5 13 5 15
3 9 -7 -5 -8 -4 -11 3 -6 6 3 26 -3 45 -14 24 -14 49 -19 85 -18 28 1 46 5 41
9 -6 3 14 21 45 39 44 25 60 29 70 20 11 -8 16 -8 22 1 4 7 3 9 -4 5 -6 -3
-13 -2 -16 3 -3 5 10 18 30 30 40 24 48 26 38 9 -5 -7 -3 -8 5 -4 7 5 10 10 7
13 -2 3 -1 16 4 29 5 13 6 23 2 22 -14 -5 -111 55 -105 65 3 6 1 7 -5 3 -12
-7 -124 52 -118 62 4 8 -38 9 -69 3z"/>
<path d="M6257 5380 c-21 -11 -43 -17 -49 -14 -6 4 -8 3 -5 -4 9 -13 -79 -65
-95 -56 -6 4 -8 3 -5 -3 7 -11 -17 -26 -43 -27 -8 -1 -15 -3 -14 -6 4 -34 18
-52 53 -70 25 -12 39 -25 35 -32 -4 -7 -3 -8 4 -4 7 4 44 -12 84 -35 39 -23
83 -42 97 -41 46 2 70 6 65 11 -7 8 140 91 153 86 7 -2 12 1 10 8 -3 15 33 17
53 3 13 -9 13 -8 3 5 -10 12 -10 18 0 29 10 10 9 11 -2 5 -11 -6 -13 -4 -8 8
4 10 2 16 -6 14 -7 -1 -11 4 -9 11 1 8 -2 11 -7 8 -12 -8 -172 85 -165 96 3 4
-3 5 -12 1 -12 -4 -15 -3 -10 5 5 8 1 10 -10 5 -10 -3 -15 -2 -12 3 12 19 -67
14 -105 -6z"/>
<path d="M8710 5393 c8 -3 24 -13 35 -22 20 -16 20 -16 1 7 -11 12 -26 22 -35
21 -14 0 -14 -1 -1 -6z"/>
<path d="M5625 5380 c3 -5 8 -10 11 -10 2 0 4 5 4 10 0 6 -5 10 -11 10 -5 0
-7 -4 -4 -10z"/>
<path d="M7305 5370 c-4 -13 -12 -19 -21 -16 -22 9 -16 -2 9 -15 12 -6 19 -8
15 -4 -4 4 -3 16 3 27 6 11 8 22 6 25 -3 2 -8 -5 -12 -17z"/>
<path d="M8450 5380 c-9 -6 -10 -10 -3 -10 6 0 15 5 18 10 8 12 4 12 -15 0z"/>
<path d="M9080 5365 c14 -8 30 -14 35 -14 6 0 -1 6 -15 14 -14 8 -29 14 -35
14 -5 0 1 -6 15 -14z"/>
<path d="M8325 5350 c-3 -5 -2 -16 2 -24 7 -12 10 -11 23 2 13 14 12 15 -4 9
-14 -5 -17 -3 -12 8 6 17 0 20 -9 5z"/>
<path d="M6794 5334 c-18 -15 -18 -15 2 -5 15 7 25 7 34 -2 12 -10 12 -9 1 6
-16 21 -13 20 -37 1z"/>
<path d="M5760 5336 c0 -2 8 -10 18 -17 15 -13 16 -12 3 4 -13 16 -21 21 -21
13z"/>
<path d="M5838 5323 c7 -3 16 -2 19 1 4 3 -2 6 -13 5 -11 0 -14 -3 -6 -6z"/>
<path d="M7510 5315 c-7 -9 -11 -17 -9 -20 3 -2 10 5 17 15 14 24 10 26 -8 5z"/>
<path d="M9150 5320 c8 -5 20 -10 25 -10 6 0 3 5 -5 10 -8 5 -19 10 -25 10 -5
0 -3 -5 5 -10z"/>
<path d="M5740 5316 c0 -2 7 -7 16 -10 8 -3 12 -2 9 4 -6 10 -25 14 -25 6z"/>
<path d="M6517 5309 c7 -7 15 -10 18 -7 3 3 -2 9 -12 12 -14 6 -15 5 -6 -5z"/>
<path d="M9221 5287 c2 -1 13 -9 24 -17 19 -14 19 -14 6 3 -7 9 -18 17 -24 17
-6 0 -8 -1 -6 -3z"/>
<path d="M7416 5272 c-3 -5 1 -9 9 -9 8 0 12 4 9 9 -3 4 -7 8 -9 8 -2 0 -6 -4
-9 -8z"/>
<path d="M9300 5236 c0 -2 7 -7 16 -10 8 -3 12 -2 9 4 -6 10 -25 14 -25 6z"/>
<path d="M6020 5215 c5 -7 6 -16 2 -21 -4 -5 -3 -5 2 -1 15 12 15 34 0 34 -9
0 -11 -4 -4 -12z"/>
<path d="M8237 5209 c-9 -5 -21 -8 -26 -4 -5 3 -13 0 -17 -6 -4 -8 -3 -9 4 -5
7 4 12 5 12 3 0 -5 -68 -47 -76 -47 -3 0 -2 5 2 12 4 7 3 8 -5 4 -6 -4 -9 -11
-7 -15 7 -11 -142 -94 -154 -86 -6 4 -9 1 -8 -7 2 -7 -5 -12 -14 -12 -10 1
-16 -1 -13 -5 2 -4 -30 -27 -71 -52 -47 -28 -73 -49 -72 -59 2 -8 54 -44 115
-79 62 -36 110 -68 108 -71 -2 -3 20 -6 50 -6 33 0 51 4 48 10 -4 5 1 7 11 3
9 -4 15 -3 12 1 -7 12 152 104 166 96 7 -5 8 -3 3 6 -5 9 -2 10 13 6 11 -4 23
-2 27 3 4 7 -1 9 -12 5 -16 -5 -16 -4 1 10 23 19 40 21 30 4 -4 -7 -3 -8 5 -4
6 4 9 11 6 16 -7 12 103 72 117 64 7 -5 8 -2 3 6 -6 10 -4 12 8 7 9 -3 19 -1
23 5 5 7 2 9 -7 4 -8 -4 -4 1 9 10 12 9 22 23 22 31 0 8 5 11 11 8 6 -4 5 2
-2 14 -9 13 -16 16 -20 9 -4 -6 -12 -7 -18 -4 -6 4 -9 11 -6 15 2 5 -5 17 -18
27 l-22 19 19 -22 c22 -27 16 -29 -25 -8 -17 9 -27 21 -23 27 4 7 3 8 -4 4 -6
-4 -45 11 -85 34 -78 42 -91 46 -120 29z"/>
<path d="M5215 5191 c-3 -5 -2 -12 3 -15 5 -3 9 1 9 9 0 17 -3 19 -12 6z"/>
<path d="M6649 5193 c-1 -5 -1 -12 0 -17 1 -5 -5 -6 -14 -2 -9 3 -14 2 -10 -3
3 -5 -31 -30 -74 -55 -85 -49 -97 -53 -85 -33 4 6 -3 3 -16 -8 -21 -18 -23
-18 -17 -2 4 11 3 16 -3 12 -5 -3 -8 -14 -7 -23 4 -23 26 -60 27 -44 0 10 5
10 20 2 11 -6 17 -16 14 -22 -4 -7 -3 -8 4 -4 16 10 54 -12 46 -26 -4 -7 -3
-8 5 -4 6 4 43 -11 84 -34 50 -29 83 -42 107 -41 19 1 46 2 59 2 16 1 20 3 11
9 -9 6 -4 13 19 24 17 9 37 14 43 10 7 -4 8 -3 4 4 -8 13 30 36 44 27 6 -4 9
-1 8 7 -2 7 5 12 15 12 10 -1 16 0 13 4 -6 5 24 31 37 32 5 0 5 -6 1 -12 -5
-9 -2 -9 9 1 18 15 23 26 7 16 -9 -5 -15 24 -11 48 1 5 -3 6 -8 3 -5 -4 -61
23 -124 59 -110 63 -167 80 -182 55 -3 -5 -11 -10 -16 -10 -6 0 -7 5 -4 10 3
6 4 10 1 10 -3 0 -7 -3 -7 -7z m-196 -143 c-3 -11 -9 -17 -15 -14 -5 3 -4 12
3 20 16 19 18 18 12 -6z"/>
<path d="M9392 5184 c10 -10 20 -15 24 -12 3 4 -5 12 -18 18 -22 12 -22 12 -6
-6z"/>
<path d="M5866 5175 c-11 -8 -15 -15 -9 -15 6 0 16 7 23 15 16 19 11 19 -14 0z"/>
<path d="M6920 5187 c0 -3 12 -12 26 -22 15 -9 23 -12 20 -6 -7 11 -46 35 -46
28z"/>
<path d="M5852 5144 c-34 -19 -67 -32 -74 -28 -7 4 -8 3 -4 -4 8 -14 -50 -46
-66 -36 -7 4 -8 3 -4 -4 3 -6 -3 -16 -14 -22 -41 -22 -23 -44 97 -113 64 -38
129 -71 144 -74 20 -4 43 4 82 26 52 29 89 43 57 20 -13 -9 -13 -10 0 -6 8 2
15 10 15 18 0 8 8 13 18 13 9 -1 14 3 10 9 -4 6 0 8 11 4 9 -4 15 -3 12 2 -7
11 62 53 74 46 5 -3 12 0 16 6 4 7 3 9 -3 6 -10 -6 -27 27 -24 46 1 5 -3 6 -9
2 -14 -9 -52 14 -44 27 4 7 3 8 -5 4 -6 -4 -50 15 -99 43 -48 28 -97 51 -107
51 -11 0 -48 -16 -83 -36z"/>
<path d="M6515 5170 c-3 -5 -1 -10 4 -10 6 0 11 5 11 10 0 6 -2 10 -4 10 -3 0
-8 -4 -11 -10z"/>
<path d="M6579 5173 c-1 -5 -1 -12 0 -16 1 -5 -9 -6 -21 -3 -13 3 -17 3 -10 0
6 -3 9 -10 6 -16 -3 -5 8 -2 25 6 33 17 42 30 14 19 -11 -4 -14 -3 -9 5 4 7 5
12 2 12 -3 0 -7 -3 -7 -7z"/>
<path d="M5083 5157 c16 -14 13 -17 -38 -46 -31 -17 -61 -29 -67 -25 -7 4 -8
3 -4 -4 8 -13 -30 -36 -44 -27 -6 4 -10 3 -9 -2 4 -23 -14 -51 -29 -46 -10 4
-14 3 -11 -1 4 -4 16 -8 28 -11 36 -7 43 -15 29 -33 -12 -15 -11 -15 4 -4 14
11 22 11 48 -3 17 -9 28 -20 25 -25 -3 -5 0 -12 6 -16 8 -4 9 -3 5 4 -8 14 -4
15 18 6 9 -3 13 -10 10 -15 -3 -5 3 -6 12 -2 11 4 15 2 11 -4 -4 -6 1 -10 11
-9 9 0 16 -4 15 -11 -1 -6 5 -17 15 -25 16 -12 16 -11 2 6 -14 18 -14 19 5 11
40 -16 83 -17 114 -1 17 9 37 14 43 10 7 -4 8 -3 4 4 -8 14 30 36 46 26 7 -4
8 -3 4 4 -8 14 30 36 46 26 6 -4 8 -3 5 3 -4 6 9 20 28 32 26 15 34 26 33 45
-1 13 -6 22 -10 20 -12 -8 -49 21 -40 31 4 5 1 5 -5 1 -16 -9 -56 12 -48 24 4
6 -1 7 -11 3 -13 -5 -15 -3 -9 7 5 8 4 11 -3 6 -6 -4 -35 7 -65 24 -56 31 -95
37 -128 20 -13 -8 -26 -7 -41 0 -21 10 -21 10 -5 -3z"/>
<path d="M5247 5159 c7 -7 15 -10 18 -7 3 3 -2 9 -12 12 -14 6 -15 5 -6 -5z"/>
<path d="M6020 5156 c7 -7 13 -7 20 0 6 6 3 10 -10 10 -13 0 -16 -4 -10 -10z"/>
<path d="M8806 5157 c3 -10 9 -15 12 -12 3 3 0 11 -7 18 -10 9 -11 8 -5 -6z"/>
<path d="M6167 5139 c7 -7 15 -10 18 -7 3 3 -2 9 -12 12 -14 6 -15 5 -6 -5z"/>
<path d="M8088 5143 c7 -3 16 -2 19 1 4 3 -2 6 -13 5 -11 0 -14 -3 -6 -6z"/>
<path d="M4935 5097 c-15 -12 -16 -15 -4 -22 8 -5 11 -5 7 0 -4 4 0 14 10 21
23 18 11 18 -13 1z"/>
<path d="M5716 5097 c3 -10 9 -15 12 -12 3 3 0 11 -7 18 -10 9 -11 8 -5 -6z"/>
<path d="M8670 5100 c-9 -6 -10 -10 -3 -10 6 0 15 5 18 10 8 12 4 12 -15 0z"/>
<path d="M6166 5092 c-2 -4 4 -8 14 -8 10 0 16 4 14 8 -3 4 -9 8 -14 8 -5 0
-11 -4 -14 -8z"/>
<path d="M8700 5091 c0 -6 4 -13 10 -16 6 -3 7 1 4 9 -7 18 -14 21 -14 7z"/>
<path d="M7220 5080 c5 -3 -38 -34 -95 -68 -58 -35 -105 -70 -105 -78 0 -7 0
-17 -1 -21 0 -5 10 -14 23 -22 21 -12 21 -12 -2 9 -17 14 -3 10 40 -14 36 -20
64 -41 62 -47 -1 -6 2 -8 7 -4 6 3 35 -9 66 -26 45 -25 64 -30 96 -26 26 3 37
2 32 -5 -3 -7 -1 -8 6 -4 6 4 9 11 6 16 -7 12 103 72 117 64 7 -4 8 -3 4 4 -7
12 45 44 65 40 13 -3 21 32 11 48 -4 6 -22 19 -40 28 -18 9 -30 21 -27 26 4 6
-1 7 -11 3 -13 -5 -15 -3 -9 7 5 9 4 11 -3 6 -6 -4 -21 -2 -32 4 -18 10 -19
14 -8 28 12 15 11 16 -4 3 -15 -11 -24 -10 -62 13 -34 20 -56 26 -95 24 -28
-1 -46 -5 -41 -8z"/>
<path d="M9590 5070 c0 -5 5 -10 11 -10 5 0 7 5 4 10 -3 6 -8 10 -11 10 -2 0
-4 -4 -4 -10z"/>
<path d="M5457 5059 c7 -7 15 -10 18 -7 3 3 -2 9 -12 12 -14 6 -15 5 -6 -5z"/>
<path d="M7000 5061 c0 -6 4 -13 10 -16 6 -3 7 1 4 9 -7 18 -14 21 -14 7z"/>
<path d="M7114 5024 c-18 -14 -18 -15 4 -4 12 6 22 13 22 15 0 8 -5 6 -26 -11z"/>
<path d="M7059 5013 c-1 -5 -1 -12 0 -17 1 -5 -5 -6 -14 -2 -9 3 -13 2 -10 -4
8 -14 18 -13 41 5 18 15 18 15 0 8 -13 -4 -17 -3 -12 5 4 7 5 12 2 12 -3 0 -7
-3 -7 -7z"/>
<path d="M4615 4990 c3 -5 8 -10 11 -10 2 0 4 5 4 10 0 6 -5 10 -11 10 -5 0
-7 -4 -4 -10z"/>
<path d="M9725 4990 c3 -5 8 -10 11 -10 2 0 4 5 4 10 0 6 -5 10 -11 10 -5 0
-7 -4 -4 -10z"/>
<path d="M6396 4982 c-2 -4 -29 -7 -60 -6 -31 1 -54 -2 -51 -6 6 -10 -54 -42
-67 -34 -6 4 -8 3 -4 -4 8 -13 -82 -64 -98 -55 -6 3 -8 3 -4 -1 4 -5 -5 -18
-19 -30 -32 -28 -27 -37 37 -72 27 -15 47 -31 43 -37 -3 -6 -1 -7 5 -3 13 8
143 -64 137 -75 -6 -9 55 5 83 20 12 7 28 9 34 5 7 -4 8 -3 4 4 -8 14 30 35
47 26 6 -4 9 -4 5 1 -12 12 28 36 49 29 12 -4 14 -3 5 3 -9 7 -1 15 27 31 25
14 40 31 44 47 2 14 2 23 -1 21 -8 -9 -83 34 -77 44 4 6 -1 7 -11 3 -13 -5
-15 -3 -9 7 5 9 4 11 -3 6 -7 -4 -21 -1 -33 7 -11 8 -17 17 -12 19 4 3 2 3 -5
1 -7 -1 -27 4 -43 13 -25 12 -28 18 -18 30 6 8 9 14 6 14 -3 0 -8 -3 -11 -8z"/>
<path d="M7810 4980 c-9 -6 -10 -10 -3 -10 6 0 15 5 18 10 8 12 4 12 -15 0z"/>
<path d="M5595 4960 c6 -9 0 -11 -21 -6 -20 4 -41 0 -66 -14 -43 -23 -52 -25
-42 -8 4 7 3 8 -5 4 -6 -4 -9 -11 -7 -15 8 -12 -120 -82 -138 -75 -9 3 -13 11
-9 18 3 6 2 7 -2 3 -16 -14 -14 -36 3 -30 16 4 16 4 0 -9 -28 -24 -25 -78 5
-78 6 0 2 7 -9 15 -16 14 -15 14 14 0 19 -9 30 -20 26 -27 -4 -7 -3 -8 5 -4 6
4 51 -15 100 -43 97 -56 124 -61 173 -31 35 21 53 26 43 11 -3 -5 -1 -12 4
-16 6 -3 8 3 6 15 -2 12 3 24 15 30 23 12 40 13 22 1 -11 -7 -11 -9 1 -14 11
-4 15 0 12 14 -2 11 4 23 15 29 23 13 33 13 25 1 -6 -11 34 -6 44 5 3 4 -2 4
-11 1 -30 -11 -30 12 0 27 36 18 46 50 23 68 -14 12 -15 11 -2 -4 10 -13 1
-11 -33 8 -26 15 -43 30 -40 36 4 7 2 8 -4 4 -17 -10 -96 35 -80 46 8 5 4 7
-12 6 -15 -2 -24 2 -23 9 2 8 -4 10 -14 6 -10 -4 -14 -2 -9 5 3 6 1 14 -5 18
-8 5 -9 3 -4 -6z"/>
<path d="M9770 4966 c0 -2 7 -7 16 -10 8 -3 12 -2 9 4 -6 10 -25 14 -25 6z"/>
<path d="M4755 4940 c-4 -6 -14 -9 -23 -5 -9 3 -13 3 -9 -1 4 -4 -38 -34 -93
-66 -88 -52 -100 -62 -97 -83 1 -13 7 -28 12 -32 4 -4 5 -2 1 5 -11 18 -1 15
49 -16 25 -16 42 -32 38 -37 -5 -4 -2 -5 5 -1 8 5 37 -7 73 -28 80 -48 107
-46 202 9 43 25 83 43 89 39 7 -5 8 -3 3 6 -6 10 -4 12 9 7 9 -4 15 -3 12 2
-3 5 5 16 19 25 37 24 31 40 -25 70 -29 16 -48 32 -44 38 4 7 2 8 -5 4 -12 -8
-124 51 -117 62 2 4 -18 8 -44 10 -28 2 -51 -2 -55 -8z"/>
<path d="M7765 4941 c-3 -5 -2 -12 3 -15 5 -3 9 1 9 9 0 17 -3 19 -12 6z"/>
<path d="M5763 4934 c4 -4 2 -12 -3 -19 -7 -8 -5 -12 5 -12 8 0 12 4 9 8 -2 4
1 9 8 11 7 3 4 7 -7 12 -11 4 -16 4 -12 0z"/>
<path d="M4670 4909 c-17 -13 -18 -17 -5 -10 33 17 51 31 40 31 -5 0 -21 -10
-35 -21z"/>
<path d="M5353 4915 c0 -8 4 -12 9 -9 5 3 6 10 3 15 -9 13 -12 11 -12 -6z"/>
<path d="M4178 4904 c-16 -8 -28 -20 -28 -27 0 -8 4 -6 10 3 5 8 10 11 10 5 0
-6 3 -6 8 1 4 6 16 16 27 22 30 17 4 14 -27 -4z"/>
<path d="M5305 4899 c-4 -6 -5 -12 -2 -15 2 -3 7 2 10 11 7 17 1 20 -8 4z"/>
<path d="M7783 4895 c0 -8 4 -12 9 -9 5 3 6 10 3 15 -9 13 -12 11 -12 -6z"/>
<path d="M9880 4900 c0 -5 5 -10 11 -10 5 0 7 5 4 10 -3 6 -8 10 -11 10 -2 0
-4 -4 -4 -10z"/>
<path d="M5815 4889 c-4 -6 -5 -12 -2 -15 2 -3 7 2 10 11 7 17 1 20 -8 4z"/>
<path d="M4118 4869 c-23 -13 -23 -35 -2 -43 14 -5 15 -4 4 9 -11 14 -7 19 13
16 4 0 7 6 7 14 0 17 0 17 -22 4z"/>
<path d="M4572 4875 c4 -4 3 -14 -4 -22 -8 -11 -7 -12 6 -7 19 7 21 20 4 30
-7 4 -10 4 -6 -1z"/>
<path d="M7667 4870 c-9 -6 -22 -8 -29 -4 -7 4 -8 3 -4 -4 8 -14 -50 -46 -66
-36 -6 4 -8 3 -5 -3 8 -13 -168 -117 -182 -108 -5 3 -13 0 -17 -6 -4 -8 -3 -9
4 -5 7 4 12 5 12 3 0 -3 -48 -33 -106 -67 -85 -49 -109 -59 -116 -48 -8 10 -9
9 -5 -4 4 -12 -19 -31 -99 -77 -57 -33 -111 -58 -118 -55 -8 3 -17 1 -21 -5
-4 -7 1 -9 12 -5 17 5 17 5 0 -6 -14 -9 -22 -9 -35 2 -15 11 -16 11 -4 -3 11
-15 6 -20 -34 -44 -38 -22 -48 -25 -56 -14 -8 11 -9 10 -5 -3 4 -12 -8 -25
-49 -48 -30 -17 -60 -28 -66 -24 -7 5 -8 2 -3 -6 6 -10 4 -12 -8 -7 -9 3 -19
1 -23 -5 -4 -7 -3 -8 4 -4 7 4 12 5 12 2 0 -11 -143 -85 -152 -79 -6 3 -8 2
-5 -4 7 -12 -69 -57 -82 -48 -5 3 -13 0 -17 -6 -5 -8 -2 -10 7 -5 8 4 5 0 -5
-8 -23 -19 -40 -21 -30 -4 4 7 3 8 -5 4 -6 -4 -9 -11 -6 -16 5 -8 -196 -130
-214 -130 -5 0 -11 -4 -13 -8 -7 -17 -188 -113 -199 -106 -8 4 -9 3 -5 -4 3
-6 -3 -16 -14 -22 -11 -6 -20 -19 -20 -30 0 -10 -5 -20 -12 -22 -7 -3 -5 -7 6
-11 10 -4 15 -3 11 3 -10 15 7 12 38 -8 15 -10 24 -22 20 -27 -5 -4 -2 -5 4
-1 17 9 55 -12 47 -26 -4 -6 -3 -8 4 -5 15 10 43 -3 35 -16 -3 -6 -1 -7 5 -3
6 4 21 2 33 -5 18 -9 19 -13 8 -21 -11 -8 -10 -9 4 -4 9 3 29 1 43 -4 20 -8
36 -6 71 10 25 11 50 17 56 13 6 -3 7 -1 3 5 -8 14 30 36 46 26 7 -4 8 -3 4 4
-3 6 2 16 13 21 26 14 40 14 21 0 -13 -9 -13 -10 0 -6 8 2 15 9 15 16 0 7 11
19 25 26 31 18 43 19 34 3 -4 -7 -3 -8 5 -4 6 4 9 11 6 16 -7 11 64 52 77 44
7 -5 8 -2 3 6 -6 10 -4 12 9 7 9 -4 15 -3 12 2 -8 12 102 73 116 65 6 -4 8 -3
5 2 -8 13 100 77 115 68 7 -5 8 -3 3 6 -6 10 -4 12 8 7 9 -3 19 -1 23 5 4 7 3
8 -4 4 -7 -4 -12 -5 -12 -3 0 11 91 58 100 52 6 -4 9 -1 8 7 -2 7 5 12 14 12
10 -1 15 3 12 8 -4 6 3 8 17 3 17 -4 20 -3 10 3 -11 8 -7 13 17 26 17 9 39 13
49 10 14 -5 15 -4 4 4 -11 8 -10 12 8 21 12 7 26 9 31 6 6 -4 9 -1 8 7 -2 7 5
12 15 12 10 -1 16 1 13 4 -10 9 173 114 186 106 7 -5 8 -3 3 6 -6 10 -4 12 9
7 9 -4 15 -3 12 2 -8 12 152 103 166 95 6 -4 8 -3 5 3 -9 14 389 247 404 237
7 -4 9 -3 6 3 -4 6 16 25 44 42 50 31 51 32 34 51 -17 18 -14 25 8 21 5 -1 6
3 2 9 -3 5 -1 10 6 10 7 0 9 3 6 7 -4 3 -16 -2 -26 -11 -19 -17 -47 -14 -36 4
3 5 0 12 -6 16 -8 4 -9 3 -5 -4 4 -7 4 -12 1 -12 -15 0 -135 72 -131 79 3 4
-3 8 -12 9 -9 1 -35 4 -57 7 -22 3 -48 0 -58 -5z"/>
<path d="M4505 4860 c-3 -5 -2 -10 4 -10 5 0 13 5 16 10 3 6 2 10 -4 10 -5 0
-13 -4 -16 -10z"/>
<path d="M5046 4853 c-6 -14 -5 -15 5 -6 7 7 10 15 7 18 -3 3 -9 -2 -12 -12z"/>
<path d="M6852 4853 c-19 -13 -25 -13 -40 -2 -15 13 -16 12 -4 -3 12 -15 9
-19 -18 -33 -17 -9 -36 -13 -42 -9 -6 4 -8 3 -5 -4 8 -12 -75 -64 -95 -60 -7
2 -12 -4 -10 -12 2 -8 5 -29 7 -48 3 -31 15 -59 15 -35 0 12 45 11 72 -1 10
-5 15 -12 12 -17 -3 -5 3 -6 12 -2 13 5 15 3 9 -7 -5 -9 -4 -11 3 -6 7 4 21 1
33 -7 11 -8 17 -17 12 -19 -4 -3 -2 -3 5 -2 7 2 29 -5 50 -16 46 -25 47 -25
105 6 41 21 51 23 65 12 15 -12 16 -11 4 4 -11 14 -10 18 9 28 17 10 24 9 31
-1 8 -11 9 -10 4 3 -3 11 2 21 14 28 25 13 39 13 20 -1 -13 -9 -13 -10 0 -6 8
2 15 10 15 17 0 7 6 15 14 18 9 3 11 0 6 -9 -5 -8 -4 -11 1 -6 5 5 9 14 9 20
0 7 5 12 12 12 6 0 15 5 20 10 4 6 4 7 -1 3 -8 -7 -41 28 -41 44 0 3 -4 10 -9
15 -5 5 -6 3 -2 -4 9 -17 1 -16 -35 2 -17 9 -27 21 -23 27 4 7 3 8 -4 4 -6 -4
-45 11 -85 34 -79 43 -109 48 -145 23z m-169 -177 c17 -13 16 -14 -6 -12 -13
0 -24 7 -24 14 0 15 7 15 30 -2z"/>
<path d="M7535 4860 c-3 -6 1 -7 9 -4 18 7 21 14 7 14 -6 0 -13 -4 -16 -10z"/>
<path d="M8260 4860 c-8 -5 -12 -12 -9 -15 4 -3 12 1 19 10 14 17 11 19 -10 5z"/>
<path d="M3860 4719 c-225 -131 -254 -149 -233 -149 6 0 18 7 27 15 8 8 22 12
30 9 10 -4 18 0 22 10 8 20 58 48 69 38 5 -4 5 -2 1 5 -6 12 30 30 49 24 6 -1
7 1 3 5 -10 9 54 43 70 36 7 -2 12 1 10 9 -2 7 3 14 10 15 6 1 17 2 23 3 5 0
7 6 3 12 -4 8 1 9 17 4 19 -5 21 -4 9 4 -11 8 -11 11 -2 12 6 1 15 2 20 3 4 0
19 11 32 24 14 12 35 25 47 28 13 4 23 10 23 15 0 5 -1 9 -2 9 -2 0 -104 -59
-228 -131z"/>
<path d="M5100 4841 c0 -6 4 -13 10 -16 6 -3 7 1 4 9 -7 18 -14 21 -14 7z"/>
<path d="M6005 4839 c-4 -6 -5 -12 -2 -15 2 -3 7 2 10 11 7 17 1 20 -8 4z"/>
<path d="M7485 4840 c-3 -6 1 -7 9 -4 18 7 21 14 7 14 -6 0 -13 -4 -16 -10z"/>
<path d="M6774 4824 c-18 -14 -18 -15 4 -4 12 6 22 13 22 15 0 8 -5 6 -26 -11z"/>
<path d="M7530 4829 c0 -5 -4 -7 -10 -4 -14 9 -12 -1 3 -13 10 -8 13 -6 14 9
1 10 0 19 -3 19 -2 0 -4 -5 -4 -11z"/>
<path d="M10020 4820 c0 -5 5 -10 11 -10 5 0 7 5 4 10 -3 6 -8 10 -11 10 -2 0
-4 -4 -4 -10z"/>
<path d="M4490 4816 c0 -2 7 -7 16 -10 8 -3 12 -2 9 4 -6 10 -25 14 -25 6z"/>
<path d="M7483 4808 c3 -9 1 -19 -6 -22 -9 -3 -9 -5 0 -5 18 -1 23 13 11 29
-8 12 -9 12 -5 -2z"/>
<path d="M6695 4790 c3 -6 1 -10 -6 -10 -7 0 -10 -3 -6 -6 3 -3 13 -2 22 4 16
8 16 9 1 15 -10 4 -15 3 -11 -3z"/>
<path d="M5865 4780 c-3 -6 1 -7 9 -4 18 7 21 14 7 14 -6 0 -13 -4 -16 -10z"/>
<path d="M10111 4748 c16 -30 19 -43 11 -65 -5 -16 -15 -27 -21 -25 -6 1 -11
-4 -11 -11 0 -13 -27 -31 -120 -79 -25 -13 -51 -29 -58 -35 -7 -7 -34 -22 -60
-33 -25 -11 -49 -24 -52 -28 -5 -7 -27 -19 -125 -71 -48 -25 -115 -68 -125
-81 -3 -4 -33 -20 -67 -36 -35 -16 -63 -32 -63 -36 0 -5 -7 -8 -15 -8 -9 0
-30 -10 -48 -22 -85 -58 -107 -71 -209 -125 -21 -11 -35 -23 -31 -27 3 -3 -4
-6 -17 -6 -12 0 -31 -9 -41 -21 -9 -11 -20 -20 -23 -20 -4 1 -29 -11 -57 -26
-29 -16 -67 -36 -85 -46 -19 -9 -34 -21 -34 -26 0 -5 -10 -7 -22 -3 -14 3 -19
2 -14 -6 4 -7 1 -12 -8 -12 -9 0 -16 -4 -16 -9 0 -5 -12 -14 -27 -20 -16 -6
-41 -19 -58 -30 -29 -18 -65 -39 -142 -82 -21 -12 -49 -29 -63 -39 -14 -9 -40
-23 -57 -31 -18 -8 -33 -17 -33 -21 0 -5 -5 -8 -10 -8 -6 0 -46 -23 -90 -50
-44 -27 -82 -50 -85 -50 -4 0 -123 -68 -175 -100 -35 -22 -151 -89 -225 -130
-33 -18 -71 -41 -84 -52 -13 -10 -28 -18 -33 -18 -6 0 -22 -8 -36 -19 -51 -35
-205 -121 -219 -121 -8 0 -12 -4 -9 -8 3 -5 -22 -22 -54 -37 -33 -16 -60 -33
-60 -38 0 -5 -7 -7 -15 -3 -8 3 -14 0 -12 -7 1 -7 -5 -12 -13 -12 -8 0 -17 -3
-20 -6 -3 -3 -36 -23 -75 -44 -65 -36 -126 -74 -150 -92 -5 -5 -21 -14 -35
-21 -14 -7 -38 -21 -55 -31 -16 -11 -38 -20 -48 -20 -10 -1 -15 -5 -12 -11 3
-5 1 -10 -5 -10 -6 0 -40 -18 -76 -40 -36 -22 -70 -40 -74 -40 -5 0 -10 -3
-12 -7 -3 -8 -70 -47 -125 -72 -18 -8 -33 -19 -33 -23 0 -4 -6 -8 -13 -8 -8 0
-22 -9 -33 -21 -10 -11 -26 -18 -36 -16 -9 3 -16 0 -15 -5 1 -6 -16 -20 -39
-32 -23 -11 -48 -27 -57 -34 -9 -8 -22 -10 -28 -6 -7 4 -9 3 -5 -4 4 -6 -26
-27 -76 -51 -46 -22 -103 -54 -128 -71 -25 -16 -51 -30 -57 -30 -7 0 -13 -4
-13 -9 0 -5 -31 -25 -70 -44 -38 -19 -67 -37 -63 -41 3 -3 -1 -6 -11 -6 -9 0
-34 -11 -56 -25 -22 -14 -44 -25 -50 -25 -5 0 -10 -4 -10 -9 0 -5 -24 -21 -52
-36 -29 -15 -64 -35 -78 -44 -14 -9 -37 -22 -52 -29 -16 -6 -28 -16 -28 -22 0
-5 -3 -9 -7 -8 -8 2 -24 -7 -130 -69 -31 -18 -61 -33 -68 -33 -8 0 -15 -4 -17
-8 -1 -4 -32 -26 -67 -47 -59 -35 -72 -39 -135 -39 -77 -1 -108 10 -206 75
-30 19 -71 44 -90 55 -19 10 -37 21 -40 24 -3 3 -18 12 -35 20 -16 8 -60 34
-98 57 -37 24 -71 43 -76 43 -4 0 -25 11 -45 25 -20 14 -68 42 -107 62 -39 21
-78 43 -87 48 -75 45 -120 72 -137 82 -11 7 -42 24 -69 37 -27 14 -52 28 -55
33 -3 4 -32 21 -64 37 -33 16 -64 34 -71 40 -6 6 -22 17 -36 25 -155 89 -204
116 -208 113 -2 -2 -9 3 -15 11 -7 8 -28 23 -47 33 -19 10 -78 44 -131 76 -53
32 -107 62 -120 67 -13 5 -48 25 -76 45 -29 20 -56 36 -61 36 -5 0 -35 17 -68
38 -32 21 -84 50 -114 66 -30 16 -62 33 -70 40 -15 11 -26 17 -109 64 -25 14
-93 53 -151 86 -58 34 -121 70 -140 80 -19 11 -37 22 -40 26 -3 3 -31 18 -62
34 -32 15 -60 31 -63 36 -3 4 -38 25 -77 45 -40 21 -75 41 -78 44 -3 3 -28 18
-56 34 -147 78 -175 97 -189 130 -18 43 -7 74 36 105 21 15 39 30 39 35 0 8
-36 -13 -79 -45 -15 -11 -32 -16 -44 -12 -15 5 -19 3 -14 -9 4 -11 0 -13 -14
-10 -14 4 -18 1 -14 -10 4 -10 -3 -18 -22 -25 -15 -5 -48 -28 -72 -50 l-44
-41 44 -40 c24 -23 49 -41 56 -41 7 0 13 -4 13 -9 0 -5 23 -24 50 -42 28 -18
50 -36 50 -40 0 -4 14 -12 30 -18 17 -5 30 -15 30 -20 0 -6 5 -11 11 -11 6 0
25 -11 43 -25 18 -14 38 -25 44 -25 6 0 23 -11 38 -25 15 -14 33 -25 41 -25 8
0 11 -4 8 -10 -3 -5 7 -12 22 -16 15 -4 41 -18 56 -31 16 -12 35 -23 43 -23 8
0 14 -3 14 -7 0 -5 18 -17 41 -27 22 -11 50 -29 62 -40 13 -12 35 -26 49 -33
15 -7 61 -37 102 -68 42 -30 78 -55 81 -55 3 1 18 -9 33 -22 16 -13 51 -34 80
-47 28 -13 49 -28 46 -33 -3 -4 3 -8 14 -8 10 0 38 -13 60 -30 23 -16 49 -30
57 -30 8 0 15 -4 15 -9 0 -5 13 -12 30 -16 16 -4 32 -11 35 -15 3 -5 54 -34
114 -64 134 -68 182 -94 202 -112 8 -8 20 -14 25 -14 16 0 64 -24 64 -32 0 -5
8 -8 19 -8 10 0 30 -11 45 -25 15 -14 35 -25 45 -25 10 0 28 -9 41 -20 13 -12
29 -18 36 -16 7 3 16 -4 19 -15 4 -10 14 -19 24 -19 10 0 24 -7 31 -14 6 -8
28 -20 48 -27 40 -13 83 -37 94 -54 4 -5 8 -7 8 -3 0 10 88 -29 106 -47 8 -8
30 -17 49 -21 18 -3 52 -21 73 -40 22 -19 45 -34 51 -34 17 0 109 -50 113 -61
2 -5 12 -11 24 -13 11 -2 37 -14 57 -25 21 -12 42 -21 48 -21 5 0 27 -11 47
-25 20 -14 44 -25 54 -25 10 0 15 -6 13 -13 -5 -14 58 -57 84 -57 10 0 26 -9
36 -20 10 -11 29 -20 42 -20 12 0 23 -4 23 -10 0 -5 3 -9 8 -8 11 4 72 -26 72
-34 0 -5 8 -8 18 -8 10 0 23 -5 28 -10 6 -6 24 -13 40 -16 16 -3 36 -12 45
-20 9 -8 22 -13 30 -11 8 2 11 2 7 0 -18 -10 -6 -25 16 -21 16 3 27 0 30 -9 4
-11 9 -11 25 -1 16 10 30 6 85 -20 37 -18 73 -32 79 -32 7 0 18 -5 25 -12 19
-19 64 -16 70 4 2 10 13 18 23 18 10 0 22 6 26 13 4 7 27 19 51 25 23 7 42 17
42 21 0 5 9 11 20 14 11 3 19 11 18 18 -2 7 5 15 14 17 10 2 31 17 49 33 17
16 37 29 45 29 8 0 14 4 14 9 0 5 19 12 41 16 24 4 37 10 30 14 -15 9 -2 20
52 45 20 9 37 21 37 26 0 6 12 10 26 10 14 0 23 4 19 10 -3 5 3 10 14 10 12 0
21 5 21 11 0 16 42 48 63 49 9 0 17 5 17 10 0 6 9 10 20 10 10 0 24 9 30 20 6
11 19 20 29 20 10 0 24 6 30 14 7 8 26 17 44 20 18 3 46 18 62 34 34 30 50 40
110 72 22 12 45 29 52 37 7 9 27 17 45 18 17 2 37 10 43 19 7 9 17 16 22 16 5
0 18 9 28 20 10 11 35 25 57 30 21 6 38 15 38 20 0 6 8 10 19 10 10 0 31 10
47 23 16 12 29 21 29 19 0 -5 59 19 65 26 9 12 49 32 64 32 8 0 16 7 20 15 3
8 14 15 24 15 10 0 27 9 36 19 10 11 35 23 57 26 21 4 37 10 34 15 -4 7 83 50
103 50 6 0 12 7 16 15 3 9 19 15 41 15 24 0 35 5 35 14 0 8 17 20 38 26 20 7
44 18 52 25 8 8 35 19 58 27 24 7 48 21 53 31 5 9 15 17 22 17 7 0 32 9 55 20
22 11 45 20 50 20 5 0 17 9 27 20 10 11 26 20 36 20 10 0 24 6 31 13 7 7 62
37 122 67 59 30 110 60 113 67 3 7 13 13 22 13 10 0 37 9 62 20 44 21 49 24
104 60 17 11 51 28 78 38 26 9 47 20 47 25 0 4 10 12 23 17 12 6 42 22 67 37
25 14 72 40 105 58 33 17 78 43 100 56 22 14 57 33 78 43 20 9 37 21 37 25 0
4 18 14 40 21 21 7 38 18 37 23 -1 6 7 13 18 15 11 2 32 13 47 23 14 11 33 19
42 19 8 0 19 7 24 16 9 17 36 34 94 60 21 9 35 20 32 25 -3 5 1 9 10 9 8 0 27
14 43 30 15 17 34 30 40 30 7 0 12 5 10 12 -1 6 6 14 16 16 9 2 31 16 49 32
18 17 37 26 46 22 10 -3 13 -1 8 6 -4 7 -2 12 3 12 6 0 28 16 50 35 21 19 46
35 55 35 9 0 16 5 16 12 0 6 2 9 5 6 3 -3 20 8 36 23 17 16 40 29 51 29 10 0
16 5 13 10 -3 6 0 10 9 10 8 0 34 15 58 33 24 18 57 39 75 46 17 7 39 21 49
32 9 10 23 19 31 19 7 0 21 9 30 20 10 11 23 20 30 20 6 0 15 9 18 21 4 11 9
18 12 15 10 -10 62 24 68 45 6 17 9 19 16 8 7 -11 14 -8 34 14 14 15 34 27 43
27 15 0 15 2 2 10 -13 8 -13 10 2 10 15 0 42 19 92 65 11 11 24 20 28 20 4 0
16 10 28 23 11 12 27 22 34 22 7 0 25 11 40 25 15 14 32 25 37 25 6 0 9 6 6
13 -2 6 -12 11 -21 11 -21 -2 -21 12 2 25 14 9 15 10 1 11 -22 0 -17 35 8 57
32 28 53 78 53 125 0 34 -7 51 -30 78 l-30 35 21 -37z m-41 -238 c0 -5 -4 -10
-10 -10 -5 0 -10 5 -10 10 0 6 5 10 10 10 6 0 10 -4 10 -10z m-3 -26 c-3 -3
-12 -4 -19 -1 -8 3 -5 6 6 6 11 1 17 -2 13 -5z m-5152 -2704 c3 -5 1 -10 -4
-10 -6 0 -11 5 -11 10 0 6 2 10 4 10 3 0 8 -4 11 -10z"/>
<path d="M5907 4740 c-21 -11 -43 -17 -49 -14 -7 4 -8 3 -4 -4 8 -14 -50 -46
-66 -36 -6 4 -8 3 -5 -3 4 -6 -16 -24 -44 -42 -28 -17 -49 -37 -47 -43 3 -7
29 -27 59 -46 30 -18 53 -37 51 -43 -1 -6 2 -8 7 -4 6 3 24 -1 40 -10 22 -11
29 -20 25 -33 -5 -13 -4 -14 4 -4 8 12 15 11 42 -3 21 -11 45 -15 67 -12 24 4
32 3 27 -6 -4 -7 -3 -8 2 -4 5 5 9 13 9 18 0 7 179 119 192 119 2 0 1 -5 -3
-12 -4 -6 -3 -8 2 -5 5 3 11 19 12 35 2 21 -4 32 -23 42 -13 7 -22 18 -18 23
3 6 1 7 -5 3 -7 -4 -42 11 -78 32 -36 22 -62 42 -57 44 4 3 2 3 -5 1 -7 -1
-26 4 -42 12 -38 20 -48 19 -93 -5z"/>
<path d="M8020 4756 c0 -2 7 -7 16 -10 8 -3 12 -2 9 4 -6 10 -25 14 -25 6z"/>
<path d="M7170 4745 c0 -2 6 -8 13 -14 10 -8 14 -7 14 2 0 8 -6 14 -14 14 -7
0 -13 -1 -13 -2z"/>
<path d="M4345 4720 c-3 -5 -3 -10 2 -10 4 0 -5 -9 -22 -20 -16 -11 -37 -17
-45 -14 -8 3 -11 2 -7 -2 10 -10 -81 -66 -94 -59 -5 4 -8 3 -7 -2 4 -11 -27
-54 -35 -48 -4 3 -4 2 -1 -2 3 -5 9 -8 12 -8 4 -1 22 -9 41 -19 23 -12 30 -20
22 -26 -9 -5 -8 -9 4 -13 9 -4 13 -3 10 3 -10 16 7 11 47 -14 21 -12 35 -25
32 -28 -3 -3 3 -5 13 -4 10 0 17 -5 15 -12 -1 -8 2 -11 7 -7 6 3 24 -1 40 -10
17 -8 38 -15 48 -15 10 0 73 32 141 71 120 71 146 98 106 113 -8 3 -13 10 -9
15 3 5 0 13 -6 17 -8 4 -9 3 -5 -4 12 -20 -7 -13 -69 24 -71 43 -78 49 -45 39
14 -4 28 -13 32 -19 4 -6 6 -2 6 9 -2 17 -8 20 -37 19 -20 -1 -53 8 -75 18
-37 19 -59 20 -100 3 -14 -6 -17 -5 -12 3 4 7 5 12 2 12 -3 0 -8 -4 -11 -10z"/>
<path d="M5127 4719 c-9 -5 -22 -7 -29 -3 -7 5 -8 3 -3 -6 6 -10 4 -12 -9 -7
-9 4 -15 3 -12 -2 8 -13 -82 -64 -96 -55 -7 4 -8 3 -4 -4 8 -13 -30 -36 -44
-27 -6 4 -10 3 -9 -2 1 -4 -2 -17 -6 -27 -10 -23 -2 -29 112 -93 46 -26 81
-48 79 -51 -2 -2 -17 4 -33 14 -15 10 -25 14 -21 9 4 -4 2 -15 -5 -24 -10 -14
-10 -14 5 -3 10 8 22 10 30 5 7 -4 22 -9 33 -10 11 -1 41 -6 67 -11 26 -5 45
-6 43 -2 -2 3 21 21 52 39 45 27 57 31 65 20 8 -11 9 -10 4 3 -4 13 9 25 49
48 59 33 63 41 41 60 -8 6 -12 19 -9 28 4 13 3 14 -5 3 -7 -10 -14 -11 -31 -2
-12 7 -19 16 -16 21 3 5 0 12 -6 16 -8 4 -9 3 -5 -4 10 -16 1 -15 -35 3 -17 9
-27 21 -23 27 4 7 3 8 -5 4 -6 -4 -31 4 -56 18 -46 27 -88 33 -118 15z"/>
<path d="M5806 4703 c-6 -14 -5 -15 5 -6 7 7 10 15 7 18 -3 3 -9 -2 -12 -12z"/>
<path d="M7325 4690 c-3 -6 1 -7 9 -4 18 7 21 14 7 14 -6 0 -13 -4 -16 -10z"/>
<path d="M4926 4682 c-2 -4 4 -8 14 -8 10 0 16 4 14 8 -3 4 -9 8 -14 8 -5 0
-11 -4 -14 -8z"/>
<path d="M5410 4680 c-8 -5 -10 -10 -5 -10 6 0 17 5 25 10 8 5 11 10 5 10 -5
0 -17 -5 -25 -10z"/>
<path d="M4243 4665 c0 -8 4 -12 9 -9 5 3 6 10 3 15 -9 13 -12 11 -12 -6z"/>
<path d="M7290 4670 c-9 -6 -10 -10 -3 -10 6 0 15 5 18 10 8 12 4 12 -15 0z"/>
<path d="M4595 4660 c-3 -6 1 -7 9 -4 18 7 21 14 7 14 -6 0 -13 -4 -16 -10z"/>
<path d="M4700 4667 c0 -3 12 -12 26 -22 15 -9 23 -12 20 -6 -7 11 -46 35 -46
28z"/>
<path d="M6508 4663 c7 -3 16 -2 19 1 4 3 -2 6 -13 5 -11 0 -14 -3 -6 -6z"/>
<path d="M5476 4653 c6 -4 14 -15 17 -23 5 -11 6 -9 4 4 -1 11 -9 21 -17 23
-10 3 -11 2 -4 -4z"/>
<path d="M6487 4639 c-9 -5 -22 -7 -29 -3 -7 5 -8 3 -3 -6 6 -10 4 -12 -9 -7
-9 4 -15 3 -12 -2 8 -12 -102 -73 -116 -65 -7 4 -8 3 -4 -4 4 -6 -6 -18 -24
-27 -16 -8 -30 -21 -30 -29 0 -12 31 -46 42 -46 3 0 52 -27 109 -60 57 -33
112 -60 123 -60 11 0 44 14 73 30 30 17 58 28 64 25 5 -4 8 -2 7 4 -2 6 26 27
62 47 36 19 56 28 46 20 -11 -9 -15 -16 -9 -16 6 0 15 6 21 13 23 27 -12 60
-133 129 -121 68 -145 76 -178 57z"/>
<path d="M4150 4630 c-9 -6 -10 -10 -3 -10 6 0 15 5 18 10 8 12 4 12 -15 0z"/>
<path d="M7840 4611 c0 -7 -5 -9 -12 -5 -7 5 -8 3 -3 -5 5 -9 10 -10 18 -2 6
6 8 14 4 18 -4 3 -7 1 -7 -6z"/>
<path d="M4140 4600 c-8 -5 -12 -12 -9 -15 4 -3 12 1 19 10 14 17 11 19 -10 5z"/>
<path d="M6675 4590 c3 -5 8 -10 11 -10 2 0 4 5 4 10 0 6 -5 10 -11 10 -5 0
-7 -4 -4 -10z"/>
<path d="M7789 4583 c-13 -16 -12 -17 4 -4 16 13 21 21 13 21 -2 0 -10 -8 -17
-17z"/>
<path d="M4703 4575 c0 -8 4 -12 9 -9 5 3 6 10 3 15 -9 13 -12 11 -12 -6z"/>
<path d="M7116 4582 c-3 -5 1 -9 9 -9 8 0 15 4 15 9 0 4 -4 8 -9 8 -6 0 -12
-4 -15 -8z"/>
<path d="M3395 4451 c-205 -121 -599 -349 -738 -428 -43 -25 -76 -47 -73 -50
3 -3 27 8 53 25 35 23 51 28 60 20 11 -8 12 -7 6 8 -6 17 -5 18 12 4 10 -8 16
-10 12 -3 -8 13 70 76 83 68 4 -3 13 2 20 10 10 12 16 13 27 4 11 -10 12 -9 7
5 -4 10 -1 16 8 16 8 0 25 9 38 20 12 11 27 17 33 13 5 -3 7 -1 3 5 -7 12 27
27 73 31 8 0 11 4 8 7 -9 10 41 46 53 39 6 -4 9 -1 8 7 -2 7 4 13 12 13 8 0
17 2 20 5 3 3 18 14 34 24 23 15 30 16 38 5 8 -11 9 -10 4 3 -4 13 5 23 33 38
21 10 42 16 46 12 5 -4 5 -1 1 6 -4 7 -2 12 5 12 7 0 27 11 45 25 18 14 37 25
42 25 5 0 15 7 22 15 7 9 19 14 27 11 8 -3 11 -2 8 3 -3 5 11 15 30 22 19 7
35 17 35 21 0 4 5 8 11 8 5 0 7 -5 3 -12 -4 -7 -3 -8 5 -4 6 4 9 11 6 15 -7
12 42 31 62 25 15 -5 16 -4 3 5 -13 9 -8 15 12 13 3 -1 9 5 12 13 3 8 2 15 -2
14 -4 0 -97 -53 -207 -118z"/>
<path d="M6980 4559 c0 -5 5 -7 10 -4 6 3 10 8 10 11 0 2 -4 4 -10 4 -5 0 -10
-5 -10 -11z"/>
<path d="M6250 4550 c-9 -6 -10 -10 -3 -10 6 0 15 5 18 10 8 12 4 12 -15 0z"/>
<path d="M6747 4549 c7 -7 15 -10 18 -7 3 3 -2 9 -12 12 -14 6 -15 5 -6 -5z"/>
<path d="M4060 4530 c-9 -6 -10 -10 -3 -10 6 0 15 5 18 10 8 12 4 12 -15 0z"/>
<path d="M4830 4530 c-9 -6 -10 -10 -3 -10 6 0 15 5 18 10 8 12 4 12 -15 0z"/>
<path d="M5536 4523 c-14 -8 -32 -11 -38 -7 -6 4 -8 3 -4 -4 8 -14 -100 -76
-115 -66 -8 4 -9 3 -5 -4 3 -6 -2 -16 -13 -21 -31 -17 -36 -13 -15 12 l19 22
-23 -19 c-12 -11 -20 -21 -17 -24 3 -3 0 -11 -6 -19 -9 -10 -8 -18 6 -33 20
-22 7 -28 -14 -7 -11 9 -12 9 -7 0 4 -7 16 -18 28 -24 15 -8 19 -8 14 0 -10
15 0 14 35 -4 17 -9 27 -21 23 -27 -4 -7 -3 -8 5 -4 6 4 43 -11 82 -33 77 -45
104 -49 150 -26 16 9 35 13 41 9 6 -4 8 -3 5 4 -9 13 131 95 146 85 7 -3 9 -2
4 2 -4 5 0 16 9 26 14 16 13 19 -18 42 -18 13 -48 32 -66 41 -19 10 -30 21
-26 28 4 7 3 8 -4 4 -15 -9 -75 22 -67 34 4 6 -1 7 -11 3 -12 -4 -15 -3 -10 5
5 8 1 10 -10 5 -10 -3 -15 -2 -12 3 9 15 -56 13 -86 -3z"/>
<path d="M4655 4521 c-3 -5 -2 -12 3 -15 5 -3 9 1 9 9 0 17 -3 19 -12 6z"/>
<path d="M4719 4528 c-8 -26 -5 -36 8 -31 11 4 12 8 3 13 -9 6 -9 9 1 13 10 4
10 6 2 6 -7 1 -13 0 -14 -1z"/>
<path d="M5764 4523 c15 -4 16 -7 5 -15 -11 -7 -11 -9 -1 -6 20 5 16 23 -5 25
-15 2 -15 1 1 -4z"/>
<path d="M4755 4510 c6 -10 -54 -42 -67 -34 -7 5 -8 3 -3 -6 6 -10 4 -12 -9
-7 -9 4 -15 3 -12 -2 3 -5 -25 -27 -63 -50 -84 -50 -101 -92 -40 -96 10 -1 61
-28 115 -60 65 -39 107 -58 126 -56 57 3 66 5 62 12 -6 11 105 70 118 63 7 -5
8 -2 3 6 -6 10 -4 12 9 7 9 -4 15 -3 12 2 -3 5 10 19 30 30 19 12 34 27 32 34
-3 6 -29 27 -59 45 -30 18 -53 38 -51 43 1 6 -2 8 -8 4 -14 -9 -52 14 -44 27
4 7 3 8 -4 4 -6 -4 -24 0 -39 9 -16 9 -20 14 -10 11 11 -4 16 -2 12 5 -4 6
-13 8 -19 6 -7 -3 -31 -2 -54 3 -23 4 -40 4 -37 0z"/>
<path d="M6155 4510 c-2 -3 5 -6 15 -7 11 -1 22 2 24 5 3 4 -4 8 -15 8 -11 0
-22 -3 -24 -6z"/>
<path d="M7663 4513 c-17 -6 -17 -20 0 -20 8 0 14 6 14 14 0 7 -1 13 -1 12 -1
0 -7 -3 -13 -6z"/>
<path d="M4002 4500 c-13 -6 -28 -7 -33 -4 -5 3 -8 0 -7 -8 2 -7 -5 -12 -15
-11 -10 0 -16 -2 -13 -5 6 -6 -43 -42 -57 -42 -5 0 -5 5 -1 12 4 7 3 8 -5 4
-6 -4 -9 -11 -6 -16 8 -13 -53 -42 -68 -34 -7 4 -9 3 -4 -1 4 -5 -1 -17 -10
-27 -16 -18 -16 -20 3 -37 28 -27 236 -141 257 -141 10 0 32 7 49 16 25 13 32
14 40 2 8 -10 9 -9 4 4 -6 20 27 43 46 32 7 -5 8 -3 3 6 -6 10 -4 12 9 7 10
-4 15 -3 11 3 -7 11 52 43 66 35 5 -4 8 -1 7 7 -2 7 4 13 12 12 10 -1 17 8 18
22 1 17 -8 30 -33 47 -19 13 -32 27 -27 32 4 5 2 5 -5 1 -13 -7 -145 63 -138
74 2 3 -4 6 -13 7 -9 1 -28 4 -42 7 -14 3 -36 1 -48 -4z"/>
<path d="M5375 4499 c-4 -6 -5 -12 -2 -15 2 -3 7 2 10 11 7 17 1 20 -8 4z"/>
<path d="M7725 4501 c-3 -5 -2 -12 3 -15 5 -3 9 1 9 9 0 17 -3 19 -12 6z"/>
<path d="M4146 4468 c3 -5 10 -6 15 -3 13 9 11 12 -6 12 -8 0 -12 -4 -9 -9z"/>
<path d="M6075 4471 c-3 -5 -2 -12 3 -15 5 -3 9 1 9 9 0 17 -3 19 -12 6z"/>
<path d="M4260 4456 c7 -7 13 -7 20 0 6 6 3 10 -10 10 -13 0 -16 -4 -10 -10z"/>
<path d="M5780 4466 c0 -2 7 -7 16 -10 8 -3 12 -2 9 4 -6 10 -25 14 -25 6z"/>
<path d="M6250 4460 c0 -5 5 -10 11 -10 5 0 7 5 4 10 -3 6 -8 10 -11 10 -2 0
-4 -4 -4 -10z"/>
<path d="M4185 4450 c3 -5 8 -10 11 -10 2 0 4 5 4 10 0 6 -5 10 -11 10 -5 0
-7 -4 -4 -10z"/>
<path d="M4530 4450 c-9 -6 -10 -10 -3 -10 6 0 15 5 18 10 8 12 4 12 -15 0z"/>
<path d="M4559 4443 c-13 -16 -12 -17 4 -4 16 13 21 21 13 21 -2 0 -10 -8 -17
-17z"/>
<path d="M7540 4439 c-17 -13 -18 -17 -5 -10 33 17 51 31 40 31 -5 0 -21 -10
-35 -21z"/>
<path d="M5256 4437 c-16 -12 -16 -13 2 -13 10 0 19 6 19 13 0 7 -1 13 -2 13
-1 0 -9 -6 -19 -13z"/>
<path d="M6050 4435 c0 -2 6 -8 13 -14 10 -8 14 -7 14 2 0 8 -6 14 -14 14 -7
0 -13 -1 -13 -2z"/>
<path d="M4997 4419 c7 -7 15 -10 18 -7 3 3 -2 9 -12 12 -14 6 -15 5 -6 -5z"/>
<path d="M5940 4426 c0 -2 7 -7 16 -10 8 -3 12 -2 9 4 -6 10 -25 14 -25 6z"/>
<path d="M6081 4400 c-29 -16 -59 -27 -65 -23 -6 3 -8 2 -4 -2 5 -5 -21 -26
-57 -47 -35 -21 -67 -43 -71 -49 -10 -17 12 -33 136 -104 94 -54 120 -65 145
-60 17 3 41 6 54 7 14 0 19 3 12 7 -7 5 3 15 28 29 43 25 56 27 45 10 -4 -7
-3 -8 5 -4 6 4 9 11 6 16 -7 12 64 52 78 44 7 -4 9 -4 5 1 -4 4 0 13 9 20 11
8 14 18 8 31 -4 10 -8 22 -7 26 1 4 -6 4 -15 1 -12 -5 -14 -3 -8 7 5 9 4 11
-3 6 -14 -9 -75 22 -67 34 3 5 0 12 -6 16 -8 4 -9 3 -5 -4 10 -17 -5 -14 -37
6 -15 10 -24 22 -20 27 5 4 3 5 -4 1 -7 -3 -29 3 -50 14 -48 25 -48 25 -112
-10z"/>
<path d="M6735 4420 c-3 -6 1 -7 9 -4 18 7 21 14 7 14 -6 0 -13 -4 -16 -10z"/>
<path d="M4466 4412 c-3 -5 1 -9 9 -9 8 0 12 4 9 9 -3 4 -7 8 -9 8 -2 0 -6 -4
-9 -8z"/>
<path d="M6769 4418 c-5 -18 -6 -38 -1 -34 7 8 12 36 6 36 -2 0 -4 -1 -5 -2z"/>
<path d="M5975 4370 c3 -6 1 -10 -6 -10 -7 0 -10 -3 -6 -6 3 -3 13 -2 22 4 16
8 16 9 1 15 -10 4 -15 3 -11 -3z"/>
<path d="M6390 4376 c0 -2 9 -6 20 -9 11 -3 18 -1 14 4 -5 9 -34 13 -34 5z"/>
<path d="M6645 4361 c-3 -5 -2 -12 3 -15 5 -3 9 1 9 9 0 17 -3 19 -12 6z"/>
<path d="M6447 4349 c7 -7 15 -10 18 -7 3 3 -2 9 -12 12 -14 6 -15 5 -6 -5z"/>
<path d="M7535 4293 c-60 -36 -164 -97 -230 -136 -66 -38 -184 -107 -262 -153
-78 -46 -144 -84 -146 -84 -3 0 -38 -20 -78 -45 -40 -25 -79 -45 -85 -45 -7 0
-14 -4 -16 -8 -3 -9 -246 -152 -256 -152 -3 0 -13 -6 -21 -14 -9 -7 -38 -26
-66 -41 -92 -50 -185 -107 -191 -117 -17 -26 9 -59 79 -99 151 -87 413 -236
497 -282 30 -16 65 -35 77 -43 53 -33 135 -74 147 -74 13 0 112 54 367 203 53
30 111 64 130 74 36 20 191 110 424 248 77 46 156 92 175 103 19 10 80 45 135
77 55 32 116 67 135 78 102 57 118 69 124 93 9 33 -3 46 -73 85 -31 18 -95 54
-143 81 -50 29 -92 47 -99 42 -7 -4 -9 -3 -5 4 3 6 -30 31 -81 59 -49 27 -104
59 -123 70 -195 112 -255 143 -278 142 -15 0 -76 -30 -137 -66z"/>
<path d="M7372 4341 c-11 -7 -11 -9 0 -14 9 -3 15 1 15 9 0 8 -1 14 -1 14 -1
0 -7 -4 -14 -9z"/>
<path d="M6430 4336 c0 -2 8 -10 18 -17 15 -13 16 -12 3 4 -13 16 -21 21 -21
13z"/>
<path d="M3736 4307 c-16 -12 -16 -13 2 -13 10 0 19 6 19 13 0 7 -1 13 -2 13
-1 0 -9 -6 -19 -13z"/>
<path d="M4357 4299 c7 -7 15 -10 18 -7 3 3 -2 9 -12 12 -14 6 -15 5 -6 -5z"/>
<path d="M5155 4300 c-4 -6 -16 -8 -28 -5 -14 4 -18 3 -9 -3 8 -6 -10 -21 -61
-50 -80 -46 -96 -51 -76 -24 11 15 11 15 -1 4 -8 -7 -15 -18 -15 -24 0 -6 -6
-13 -14 -16 -8 -3 -11 0 -7 7 11 17 0 13 -15 -6 -12 -14 -12 -16 0 -8 11 6 13
4 8 -7 -7 -21 12 -37 96 -83 37 -20 65 -41 62 -45 -3 -5 0 -12 6 -16 8 -4 9
-3 5 4 -11 18 5 14 39 -8 47 -31 85 -25 170 26 41 25 80 42 86 38 8 -5 9 -3 4
6 -6 10 -4 12 9 7 10 -4 15 -3 11 3 -3 5 3 14 14 19 26 14 34 14 25 -1 -4 -7
-3 -10 1 -5 17 15 11 49 -12 64 -12 8 -20 20 -16 26 3 6 1 7 -5 3 -13 -8 -57
12 -48 21 3 3 14 0 23 -8 16 -13 17 -12 4 4 -8 10 -21 15 -28 13 -20 -8 -75
22 -67 36 4 7 3 8 -5 4 -6 -4 -28 2 -47 13 -37 22 -98 28 -109 11z"/>
<path d="M5775 4300 c-3 -6 1 -7 9 -4 18 7 21 14 7 14 -6 0 -13 -4 -16 -10z"/>
<path d="M3635 4282 c-11 -2 -29 -11 -40 -18 -23 -16 -39 -18 -30 -4 3 6 1 10
-5 10 -7 0 -10 -6 -7 -14 7 -17 -79 -70 -96 -59 -6 3 -7 1 -3 -5 3 -6 -2 -16
-13 -21 -26 -14 -34 -14 -25 1 4 7 3 8 -5 4 -6 -4 -9 -11 -6 -16 3 -5 1 -12
-5 -15 -6 -4 -8 -16 -5 -28 6 -21 5 -21 -8 -4 -13 16 -15 16 -21 2 -3 -9 -2
-13 3 -10 5 3 12 1 16 -4 3 -6 13 -7 22 -4 12 5 14 3 8 -7 -5 -9 -4 -11 3 -6
15 9 73 -24 65 -37 -3 -6 -1 -7 5 -3 15 9 54 -12 47 -24 -4 -6 1 -7 11 -3 13
5 15 3 9 -7 -5 -9 -4 -11 4 -6 6 4 27 -2 46 -14 24 -15 47 -20 78 -18 25 2 43
6 41 10 -7 10 55 40 67 33 5 -4 8 -2 7 4 -2 6 26 28 62 49 36 21 66 46 68 55
2 11 -10 25 -32 38 -20 11 -34 25 -31 29 3 5 0 12 -6 16 -8 5 -9 3 -4 -6 6
-10 4 -12 -9 -7 -10 4 -20 7 -22 7 -3 0 -2 5 2 12 4 6 3 8 -3 5 -15 -10 -105
42 -97 55 4 6 3 8 -3 5 -6 -4 -23 -3 -39 1 -16 5 -38 6 -49 4z"/>
<path d="M4332 4254 c-34 -19 -67 -32 -74 -28 -7 4 -8 3 -4 -4 8 -14 -30 -36
-46 -26 -7 4 -8 3 -4 -4 4 -6 -6 -18 -24 -27 -43 -22 -35 -44 30 -83 30 -18
54 -38 52 -43 -1 -6 2 -8 7 -5 5 4 38 -9 74 -29 74 -41 80 -42 130 -15 42 23
51 25 41 8 -4 -7 -3 -8 5 -4 6 4 9 11 6 16 -7 11 103 72 116 65 5 -4 8 -1 7 6
-2 6 3 14 10 16 8 3 10 -1 5 -14 -3 -10 -3 -15 1 -11 4 3 9 12 10 20 1 7 8 23
14 36 7 12 9 21 5 20 -16 -4 -73 33 -67 44 4 6 3 8 -4 5 -15 -10 -43 3 -35 16
3 5 1 7 -5 4 -5 -4 -41 11 -80 33 -38 22 -78 40 -88 40 -10 0 -47 -16 -82 -36z"/>
<path d="M4490 4283 c0 -6 8 -17 18 -24 16 -13 16 -13 2 6 -8 11 -16 22 -17
24 -2 2 -3 0 -3 -6z"/>
<path d="M4585 4280 c-3 -5 -1 -10 4 -10 6 0 11 5 11 10 0 6 -2 10 -4 10 -3 0
-8 -4 -11 -10z"/>
<path d="M6597 4273 c3 -7 6 -13 8 -13 1 0 7 6 13 13 8 10 6 13 -7 13 -11 0
-17 -6 -14 -13z"/>
<path d="M5060 4270 c-9 -6 -10 -10 -3 -10 6 0 15 5 18 10 8 12 4 12 -15 0z"/>
<path d="M5377 4259 c7 -7 15 -10 18 -7 3 3 -2 9 -12 12 -14 6 -15 5 -6 -5z"/>
<path d="M6566 4261 c-4 -5 -2 -12 3 -15 5 -4 12 -2 15 3 4 5 2 12 -3 15 -5 4
-12 2 -15 -3z"/>
<path d="M5010 4245 c-9 -10 -9 -15 -1 -15 6 0 11 5 11 11 0 5 5 7 12 3 7 -4
8 -3 4 4 -9 15 -11 15 -26 -3z"/>
<path d="M5502 4234 c10 -10 20 -16 22 -13 3 3 -5 11 -17 18 -21 13 -21 12 -5
-5z"/>
<path d="M5646 4225 c-11 -8 -15 -15 -9 -15 6 0 16 7 23 15 16 19 11 19 -14 0z"/>
<path d="M5725 4219 c-16 -10 -25 -19 -20 -19 6 0 20 7 31 15 12 8 25 11 29 7
5 -4 5 -1 1 6 -4 6 -8 12 -9 11 -1 0 -15 -9 -32 -20z"/>
<path d="M3930 4220 c0 -6 7 -10 15 -10 8 0 15 2 15 4 0 2 -7 6 -15 10 -8 3
-15 1 -15 -4z"/>
<path d="M5510 4200 c-9 -6 -10 -10 -3 -10 6 0 15 5 18 10 8 12 4 12 -15 0z"/>
<path d="M5727 4194 c-15 -8 -33 -12 -39 -8 -6 4 -8 3 -5 -3 8 -13 -50 -46
-65 -37 -7 4 -8 3 -4 -4 8 -14 -30 -36 -46 -26 -7 5 -8 3 -3 -6 5 -9 1 -11
-16 -6 -13 3 -18 3 -10 0 10 -5 7 -12 -13 -28 -14 -11 -28 -34 -30 -49 -4 -23
-2 -26 9 -17 10 9 34 -1 105 -41 66 -38 88 -55 78 -61 -9 -6 -5 -7 11 -3 13 4
21 3 18 -1 -3 -5 15 -10 40 -12 34 -2 55 3 89 23 24 14 49 23 56 19 7 -4 8 -3
4 4 -8 14 30 35 47 26 6 -4 9 -3 4 1 -4 5 12 21 36 36 25 15 47 37 50 48 3 11
2 20 -2 19 -15 -3 -40 15 -34 25 3 6 1 7 -5 3 -16 -10 -54 12 -46 26 4 6 3 8
-4 5 -15 -10 -43 3 -35 16 3 5 1 7 -5 3 -6 -3 -32 6 -59 22 -64 38 -92 44
-126 26z"/>
<path d="M7136 4202 c-2 -4 4 -8 14 -8 10 0 16 4 14 8 -3 4 -9 8 -14 8 -5 0
-11 -4 -14 -8z"/>
<path d="M4166 4178 c3 -5 10 -6 15 -3 13 9 11 12 -6 12 -8 0 -12 -4 -9 -9z"/>
<path d="M5850 4186 c0 -2 7 -7 16 -10 8 -3 12 -2 9 4 -6 10 -25 14 -25 6z"/>
<path d="M4099 4163 c-13 -16 -12 -17 4 -4 9 7 17 15 17 17 0 8 -8 3 -21 -13z"/>
<path d="M4893 4162 c10 -10 15 -21 12 -24 -3 -2 2 -5 10 -5 12 0 10 6 -7 24
-25 27 -39 32 -15 5z"/>
<path d="M6030 4146 c0 -2 7 -7 16 -10 8 -3 12 -2 9 4 -6 10 -25 14 -25 6z"/>
<path d="M6255 4140 c-3 -6 1 -7 9 -4 18 7 21 14 7 14 -6 0 -13 -4 -16 -10z"/>
<path d="M4943 4106 c0 -15 22 -15 34 0 4 5 4 6 -1 2 -5 -4 -14 -3 -21 2 -8 7
-12 5 -12 -4z"/>
<path d="M6330 4110 c-9 -6 -10 -10 -3 -10 6 0 15 5 18 10 8 12 4 12 -15 0z"/>
<path d="M3976 4093 c-6 -14 -5 -15 5 -6 7 7 10 15 7 18 -3 3 -9 -2 -12 -12z"/>
<path d="M4769 4093 c-1 -5 -1 -12 0 -17 1 -5 -5 -6 -14 -2 -9 3 -13 2 -10 -4
7 -12 -32 -33 -47 -24 -6 4 -8 3 -4 -4 3 -6 -17 -24 -50 -43 -46 -26 -58 -29
-66 -18 -8 11 -9 10 -5 -3 3 -9 -1 -22 -9 -29 -13 -10 -13 -14 0 -28 8 -9 15
-20 14 -24 0 -5 4 -12 8 -15 4 -4 4 -1 0 6 -10 17 4 15 37 -6 15 -10 24 -22
20 -27 -5 -4 -2 -5 4 -1 16 9 56 -17 45 -29 -4 -5 -1 -5 5 -1 17 9 55 -12 47
-26 -4 -6 -3 -8 3 -5 6 4 28 0 48 -9 35 -14 39 -14 86 10 53 28 63 31 54 16
-3 -6 1 -7 10 -3 12 4 13 8 4 13 -8 6 -5 11 10 19 12 7 27 9 33 5 7 -5 8 -3 3
6 -6 10 -4 12 9 7 10 -4 15 -3 11 3 -3 5 12 18 33 29 74 38 68 47 -91 135 -37
21 -65 41 -63 45 5 7 -18 12 -81 14 -23 1 -39 5 -37 9 3 5 3 8 0 8 -3 0 -7 -3
-7 -7z"/>
<path d="M5495 4089 c-4 -6 -5 -12 -2 -15 2 -3 7 2 10 11 7 17 1 20 -8 4z"/>
<path d="M3896 4063 c-6 -14 -5 -15 5 -6 7 7 10 15 7 18 -3 3 -9 -2 -12 -12z"/>
<path d="M3865 4059 c-4 -6 -5 -12 -2 -15 2 -3 7 2 10 11 7 17 1 20 -8 4z"/>
<path d="M4000 4058 c-12 -4 -27 -5 -32 -1 -7 3 -8 1 -4 -5 8 -14 -30 -36 -46
-26 -7 4 -8 3 -4 -4 9 -15 -48 -44 -71 -36 -14 5 -15 4 -4 -4 11 -8 8 -13 -16
-25 -47 -25 -59 -44 -39 -65 9 -10 13 -22 9 -26 -4 -4 1 -4 11 0 13 5 17 4 12
-4 -3 -6 -1 -14 5 -18 8 -4 9 -3 5 4 -10 16 5 15 26 -2 10 -7 15 -16 11 -20
-4 -4 1 -4 11 0 15 6 17 4 11 -6 -5 -9 -4 -11 4 -6 6 4 38 -9 70 -28 70 -43
90 -44 148 -10 24 14 48 22 55 18 7 -4 8 -3 4 4 -8 14 30 35 47 26 6 -4 9 -4
5 1 -11 11 29 38 44 29 7 -4 8 -3 4 4 -9 15 6 16 22 2 9 -7 9 -7 2 2 -7 8 -5
17 5 28 9 10 18 27 20 40 3 18 2 20 -10 10 -15 -12 -39 -5 -30 10 3 5 0 12 -6
16 -8 4 -9 3 -5 -4 10 -16 1 -15 -35 3 -17 9 -27 21 -23 27 4 7 3 8 -4 4 -14
-9 -75 22 -67 34 3 5 0 12 -6 16 -8 4 -9 3 -5 -4 10 -17 -7 -15 -30 4 -14 11
-15 14 -3 11 9 -3 21 -2 27 2 16 10 -90 9 -118 -1z"/>
<path d="M4604 4054 c-18 -14 -18 -15 4 -4 12 6 22 13 22 15 0 8 -5 6 -26 -11z"/>
<path d="M3215 4040 c-16 -11 -36 -18 -43 -15 -7 3 -10 1 -7 -5 8 -12 -52 -43
-67 -34 -6 4 -8 3 -5 -4 4 -5 -13 -22 -38 -36 -25 -15 -45 -34 -45 -42 0 -9
-5 -12 -12 -8 -10 6 -10 5 -1 -8 7 -8 9 -19 5 -23 -4 -5 -1 -5 6 -1 7 4 10 12
7 17 -9 14 3 11 31 -8 19 -12 22 -18 12 -25 -8 -6 -5 -7 11 -3 15 5 21 3 17
-3 -3 -6 -1 -14 5 -18 8 -4 9 -3 5 4 -9 15 -1 15 25 1 11 -5 16 -15 13 -21 -4
-6 -3 -8 4 -5 15 10 43 -3 35 -16 -3 -6 -1 -7 5 -3 7 4 21 1 33 -7 12 -9 16
-16 9 -19 -7 -2 12 -5 40 -6 43 -2 62 4 106 29 30 17 58 27 64 24 6 -4 9 -1 8
7 -2 7 5 12 14 12 10 -1 15 3 11 9 -4 6 0 8 11 4 9 -4 15 -3 12 2 -3 5 10 18
30 30 22 13 34 27 32 39 -1 9 2 24 7 32 8 13 6 13 -8 2 -14 -12 -24 -9 -71 19
-30 18 -52 37 -49 43 3 5 1 6 -5 2 -13 -8 -75 21 -68 32 2 4 -3 9 -12 10 -9 1
-35 4 -57 7 -30 4 -47 1 -70 -15z"/>
<path d="M4155 4030 c-3 -6 1 -7 9 -4 18 7 21 14 7 14 -6 0 -13 -4 -16 -10z"/>
<path d="M4961 4037 c2 -1 13 -9 24 -17 19 -14 19 -14 6 3 -7 9 -18 17 -24 17
-6 0 -8 -1 -6 -3z"/>
<path d="M5030 4026 c0 -2 7 -7 16 -10 8 -3 12 -2 9 4 -6 10 -25 14 -25 6z"/>
<path d="M6059 4013 c-13 -16 -12 -17 4 -4 16 13 21 21 13 21 -2 0 -10 -8 -17
-17z"/>
<path d="M6165 4020 c3 -5 8 -10 11 -10 2 0 4 5 4 10 0 6 -5 10 -11 10 -5 0
-7 -4 -4 -10z"/>
<path d="M3446 3988 c3 -5 10 -6 15 -3 13 9 11 12 -6 12 -8 0 -12 -4 -9 -9z"/>
<path d="M4475 3980 c-3 -6 1 -7 9 -4 18 7 21 14 7 14 -6 0 -13 -4 -16 -10z"/>
<path d="M3771 3966 c-8 -10 -9 -16 -1 -21 6 -4 9 -1 8 6 -2 6 3 14 11 17 8 3
11 0 7 -7 -5 -7 -1 -9 9 -4 13 5 14 7 3 14 -18 12 -24 11 -37 -5z"/>
<path d="M5312 3955 c-23 -14 -47 -23 -54 -19 -7 4 -8 3 -4 -4 8 -13 -30 -36
-44 -27 -6 4 -9 2 -8 -4 2 -6 -15 -21 -37 -34 -33 -19 -40 -28 -42 -57 -1 -18
2 -28 6 -22 6 9 20 5 55 -14 36 -20 44 -29 34 -36 -9 -6 -5 -7 11 -3 17 5 22
4 16 -5 -5 -9 -4 -11 3 -6 15 9 54 -12 47 -24 -4 -6 1 -7 11 -3 11 4 15 3 10
-5 -3 -6 -1 -14 5 -18 8 -5 9 -3 4 6 -6 10 -4 11 11 5 35 -15 82 -17 105 -5
13 7 67 38 119 69 52 30 98 56 102 56 3 0 10 4 15 9 5 5 2 6 -6 1 -11 -6 -13
-3 -8 14 3 13 3 20 0 17 -10 -10 -64 24 -57 36 4 7 3 8 -4 4 -14 -9 -55 12
-47 24 3 5 0 12 -6 16 -8 4 -9 3 -5 -4 4 -7 4 -12 0 -12 -13 0 -83 43 -79 49
2 4 -4 8 -13 9 -9 1 -35 4 -57 7 -32 5 -49 0 -83 -20z"/>
<path d="M2590 3959 c-12 -9 -12 -10 4 -5 11 4 23 1 28 -6 7 -10 9 -10 6 1 -6
20 -20 23 -38 10z"/>
<path d="M3520 3960 c-9 -6 -10 -10 -3 -10 6 0 15 5 18 10 8 12 4 12 -15 0z"/>
<path d="M2460 3909 c-47 -27 -87 -54 -89 -61 -2 -6 9 -2 24 10 29 23 51 29
40 12 -3 -5 0 -7 9 -4 9 3 12 12 9 22 -4 9 -2 14 2 9 5 -4 20 1 34 10 14 9 36
22 49 29 13 6 20 14 15 17 -4 3 -46 -17 -93 -44z"/>
<path d="M5610 3941 c0 -6 4 -13 10 -16 6 -3 7 1 4 9 -7 18 -14 21 -14 7z"/>
<path d="M5106 3908 c3 -5 10 -6 15 -3 13 9 11 12 -6 12 -8 0 -12 -4 -9 -9z"/>
<path d="M5583 3905 c0 -8 4 -12 9 -9 5 3 6 10 3 15 -9 13 -12 11 -12 -6z"/>
<path d="M5840 3900 c-8 -5 -10 -10 -5 -10 6 0 17 5 25 10 8 5 11 10 5 10 -5
0 -17 -5 -25 -10z"/>
<path d="M5955 3890 c-3 -6 1 -7 9 -4 18 7 21 14 7 14 -6 0 -13 -4 -16 -10z"/>
<path d="M6618 3893 c7 -3 16 -2 19 1 4 3 -2 6 -13 5 -11 0 -14 -3 -6 -6z"/>
<path d="M4440 3871 c-19 -4 -47 -15 -62 -25 -15 -10 -33 -14 -39 -10 -7 4 -9
3 -6 -3 9 -14 -61 -56 -75 -47 -6 4 -8 3 -5 -3 8 -13 -36 -33 -63 -28 -11 2
-18 0 -15 -6 4 -5 12 -6 18 -3 8 5 8 3 0 -7 -18 -18 -16 -46 3 -53 8 -3 12
-11 8 -17 -4 -8 -3 -9 4 -5 16 10 74 -22 66 -36 -4 -7 -3 -8 4 -4 15 9 75 -22
67 -34 -4 -6 1 -7 11 -3 13 5 15 3 9 -7 -5 -8 -4 -11 3 -6 6 3 27 -1 46 -11
35 -16 36 -16 97 15 34 18 66 29 72 25 6 -4 7 -1 2 7 -6 10 -4 12 9 7 9 -4 15
-3 12 2 -7 11 81 64 93 57 5 -3 8 10 7 29 -1 19 1 36 4 38 3 2 -1 2 -9 0 -18
-5 -232 118 -225 129 3 4 4 7 2 7 -2 -1 -19 -4 -38 -8z"/>
<path d="M5119 3872 c9 -7 10 -11 2 -15 -7 -4 -8 -5 0 -3 15 2 13 20 -3 24
-10 3 -10 2 1 -6z"/>
<path d="M3505 3850 c-3 -6 1 -7 9 -4 18 7 21 14 7 14 -6 0 -13 -4 -16 -10z"/>
<path d="M2333 3833 c-11 -10 -26 -19 -33 -21 -23 -6 -120 -66 -120 -75 0 -5
13 1 29 12 15 11 31 18 35 14 3 -3 6 -1 6 5 0 6 8 9 18 6 14 -5 15 -4 2 5 -16
11 -17 10 25 15 17 2 69 46 62 52 -3 3 -14 -3 -24 -13z"/>
<path d="M4576 3838 c3 -4 -1 -8 -8 -8 -8 0 -5 -5 5 -11 14 -8 22 -8 30 1 9 8
7 9 -8 4 -17 -7 -18 -5 -8 7 10 13 10 16 -2 16 -8 0 -12 -4 -9 -9z"/>
<path d="M2822 3810 c-29 -17 -58 -28 -64 -24 -7 4 -8 3 -4 -4 8 -14 -50 -46
-66 -36 -7 4 -8 3 -4 -4 9 -15 -28 -33 -51 -26 -14 4 -15 4 -4 -4 7 -5 11 -15
7 -21 -4 -6 2 -18 13 -28 18 -15 18 -18 4 -28 -13 -10 -13 -14 -3 -20 8 -5 11
-4 7 2 -4 6 0 14 9 17 19 7 77 -21 69 -34 -4 -6 1 -7 11 -3 11 4 15 3 10 -5
-3 -6 -1 -14 5 -18 8 -4 9 -3 5 4 -9 15 -1 15 25 1 11 -5 16 -15 13 -21 -4 -7
-3 -8 4 -4 13 8 55 -11 48 -22 -6 -10 87 -2 100 9 6 5 20 7 30 3 14 -4 15 -3
6 4 -11 7 -10 10 3 16 9 3 22 3 27 -1 7 -3 8 -1 4 5 -4 6 19 25 58 47 74 41
91 58 82 82 -5 15 -4 15 9 -1 8 -11 15 -15 15 -9 0 5 -10 18 -22 29 -12 10
-18 13 -14 7 10 -18 -1 -16 -45 9 -21 11 -36 25 -33 29 2 4 -1 11 -7 15 -8 4
-9 3 -5 -4 9 -15 1 -15 -26 -1 -17 9 -18 13 -7 21 10 6 7 7 -10 3 -17 -5 -22
-4 -16 5 5 9 4 11 -4 6 -6 -4 -26 2 -45 13 -45 28 -71 26 -134 -9z"/>
<path d="M3445 3736 c-60 -36 -116 -64 -123 -61 -7 3 -11 1 -8 -4 7 -10 -170
-115 -182 -107 -4 2 -14 0 -22 -6 -12 -8 -11 -9 5 -4 20 6 20 6 0 -9 -11 -9
-25 -13 -33 -10 -7 2 -11 1 -8 -4 3 -5 -10 -18 -29 -30 -19 -11 -35 -27 -35
-36 0 -10 -5 -13 -12 -9 -7 4 -9 3 -5 -1 4 -5 13 -10 21 -11 20 -3 215 -117
211 -123 -2 -3 17 -7 41 -9 33 -2 55 4 89 23 24 15 50 23 56 19 7 -4 9 -3 5 4
-8 14 30 36 46 26 6 -4 8 -3 4 4 -8 14 100 76 115 66 8 -4 9 -3 5 4 -8 14 30
36 46 26 6 -4 8 -3 5 3 -8 12 146 104 165 100 7 -2 9 -2 4 1 -4 2 5 15 20 28
l29 24 -25 21 c-14 12 -24 28 -22 35 2 8 -2 14 -8 14 -6 0 -8 -4 -5 -10 8 -13
-1 -13 -26 1 -11 5 -16 15 -13 21 4 7 3 8 -4 4 -16 -10 -54 12 -46 26 4 6 3 8
-4 4 -12 -7 -64 13 -57 23 2 4 -4 7 -13 8 -9 1 -30 5 -47 8 -25 5 -49 -5 -140
-59z"/>
<path d="M2723 3775 c0 -8 4 -12 9 -9 4 3 8 9 8 15 0 5 -4 9 -8 9 -5 0 -9 -7
-9 -15z"/>
<path d="M3425 3781 c-3 -5 -2 -12 3 -15 5 -3 9 1 9 9 0 17 -3 19 -12 6z"/>
<path d="M4766 3777 c3 -10 9 -15 12 -12 3 3 0 11 -7 18 -10 9 -11 8 -5 -6z"/>
<path d="M5644 3762 c3 -5 0 -13 -6 -15 -9 -4 -10 -6 -1 -6 17 -1 25 16 12 25
-7 4 -9 3 -5 -4z"/>
<path d="M5853 3753 c0 -9 4 -10 14 -2 7 6 13 12 13 14 0 1 -6 2 -13 2 -8 0
-14 -6 -14 -14z"/>
<path d="M4957 3744 c-15 -8 -33 -12 -39 -8 -6 4 -8 3 -5 -4 9 -13 -79 -65
-95 -56 -6 4 -8 3 -5 -3 8 -13 -46 -43 -70 -39 -12 3 -20 -1 -20 -10 0 -10 4
-11 13 -3 9 8 11 5 7 -10 -4 -16 6 -26 51 -51 31 -18 54 -36 51 -40 -3 -5 0
-12 6 -16 8 -4 9 -3 5 4 -10 16 -1 15 35 -3 17 -9 27 -21 23 -27 -4 -7 -3 -8
5 -4 6 4 22 1 34 -7 36 -23 71 -27 101 -12 15 8 33 12 39 8 6 -4 7 -1 2 7 -6
10 -4 12 9 7 10 -4 15 -3 11 3 -8 13 30 31 52 24 12 -4 14 -3 5 3 -9 7 -5 13
15 23 46 23 93 60 93 74 0 7 -38 34 -85 60 -50 28 -82 52 -78 58 3 7 1 8 -5 4
-13 -8 -55 11 -48 22 8 14 -80 11 -107 -4z"/>
<path d="M5733 3744 c-17 -12 -26 -13 -45 -4 -20 10 -21 9 -6 -3 15 -12 15
-14 -3 -25 -11 -7 -25 -10 -31 -6 -7 5 -8 2 -3 -6 6 -10 4 -12 -9 -7 -9 4 -15
3 -12 -2 4 -5 -14 -21 -38 -35 -49 -29 -61 -32 -50 -14 4 7 3 8 -5 4 -6 -4 -9
-11 -6 -16 3 -5 -8 -16 -24 -25 -36 -18 -45 -19 -35 -3 4 7 3 8 -5 4 -6 -4 -9
-11 -6 -16 3 -5 -9 -17 -27 -26 -18 -9 -57 -32 -86 -51 -63 -40 -62 -45 34
-98 36 -20 62 -40 59 -45 -4 -6 2 -7 11 -3 13 5 15 3 9 -7 -5 -8 -4 -11 3 -6
6 3 34 -6 62 -21 l50 -28 61 33 c33 18 65 29 71 26 7 -5 8 -2 3 6 -6 10 -4 12
8 7 10 -4 16 -2 14 6 -1 7 6 11 15 11 10 -1 16 1 13 5 -6 11 54 43 67 35 7 -4
8 -3 4 5 -5 8 0 10 18 7 15 -3 24 -1 21 5 -4 5 -11 7 -16 4 -5 -4 -9 -4 -9 -2
0 3 21 17 46 32 38 22 48 25 56 14 8 -11 9 -10 4 3 -4 13 4 23 26 34 22 12 33
13 36 5 2 -6 8 -11 14 -11 6 0 6 6 -2 15 -10 12 -8 17 13 26 14 6 28 20 30 31
3 11 3 17 0 14 -9 -9 -84 34 -78 44 4 6 -1 7 -11 3 -13 -5 -15 -3 -9 7 5 9 4
11 -3 6 -18 -11 -37 4 -21 16 10 7 8 8 -6 4 -13 -4 -41 7 -78 29 -63 38 -90
42 -124 19z"/>
<path d="M3363 3736 c-10 -11 -9 -15 4 -20 9 -4 21 -2 27 4 8 8 6 9 -7 4 -13
-5 -16 -2 -11 10 7 19 3 20 -13 2z"/>
<path d="M4028 3733 c7 -3 16 -2 19 1 4 3 -2 6 -13 5 -11 0 -14 -3 -6 -6z"/>
<path d="M4880 3720 c-9 -6 -10 -10 -3 -10 6 0 15 5 18 10 8 12 4 12 -15 0z"/>
<path d="M6340 3716 c0 -2 7 -7 16 -10 8 -3 12 -2 9 4 -6 10 -25 14 -25 6z"/>
<path d="M5157 3699 c7 -7 15 -10 18 -7 3 3 -2 9 -12 12 -14 6 -15 5 -6 -5z"/>
<path d="M4020 3646 c7 -7 13 -7 20 0 6 6 3 10 -10 10 -13 0 -16 -4 -10 -10z"/>
<path d="M4223 3641 c0 -11 5 -18 9 -15 4 3 5 11 1 19 -7 21 -12 19 -10 -4z"/>
<path d="M5256 3648 c3 -5 10 -6 15 -3 13 9 11 12 -6 12 -8 0 -12 -4 -9 -9z"/>
<path d="M3236 3635 c-10 -8 -23 -12 -29 -8 -6 3 -7 1 -3 -5 5 -8 13 -9 24 -2
33 19 47 30 37 30 -5 -1 -19 -7 -29 -15z"/>
<path d="M4636 3631 c-19 -7 -19 -8 2 -13 12 -4 20 -2 17 2 -3 5 1 11 7 13 7
3 9 5 3 6 -5 0 -19 -4 -29 -8z"/>
<path d="M6120 3630 c8 -5 20 -10 25 -10 6 0 3 5 -5 10 -8 5 -19 10 -25 10 -5
0 -3 -5 5 -10z"/>
<path d="M3954 3618 c-3 -4 2 -5 10 -2 34 13 13 -6 -39 -36 -48 -28 -58 -30
-73 -18 -15 11 -16 11 -4 -3 11 -15 7 -20 -33 -43 -25 -15 -50 -24 -57 -20 -7
4 -8 3 -4 -4 8 -14 -30 -36 -46 -26 -7 5 -8 3 -3 -6 6 -10 4 -12 -9 -7 -9 4
-15 3 -11 -2 7 -13 -102 -74 -116 -65 -7 4 -9 3 -6 -4 4 -6 -17 -23 -48 -41
-59 -34 -70 -37 -59 -19 4 7 3 8 -5 4 -6 -4 -9 -11 -6 -16 6 -10 -49 -42 -58
-34 -3 3 -3 -3 0 -15 3 -12 0 -27 -6 -34 -8 -10 -7 -14 4 -14 8 0 11 5 8 10
-8 13 -1 10 90 -41 46 -26 75 -48 71 -54 -4 -7 -2 -8 4 -4 6 4 30 -3 52 -14
29 -15 51 -19 73 -15 25 5 29 4 17 -5 -13 -10 -13 -11 0 -7 8 2 15 9 15 16 0
16 84 63 98 54 5 -3 7 -2 4 4 -8 13 50 46 65 37 7 -5 8 -3 3 6 -6 10 -4 12 8
7 9 -3 19 -1 23 5 4 7 3 8 -4 4 -7 -4 -12 -5 -12 -3 0 5 68 47 76 47 3 0 2 -5
-2 -12 -4 -7 -3 -8 5 -4 6 4 9 11 7 15 -7 11 123 83 136 75 7 -4 8 -3 4 4 -8
14 50 46 66 36 7 -4 8 -3 4 4 -8 14 30 36 46 26 7 -4 8 -3 4 4 -8 13 30 36 44
27 6 -4 9 -1 8 7 -2 7 2 12 7 11 6 -1 11 7 11 17 0 10 -3 18 -6 18 -18 -1 -23
3 -12 11 11 7 10 9 -3 14 -9 4 -13 3 -10 -3 10 -15 -7 -12 -38 8 -15 10 -24
22 -20 27 5 4 2 5 -4 1 -16 -9 -74 24 -66 37 3 6 1 7 -4 4 -6 -4 -30 4 -54 17
-32 18 -57 24 -92 23 -27 -1 -51 -5 -53 -9z"/>
<path d="M4097 3619 c7 -7 15 -10 18 -7 3 3 -2 9 -12 12 -14 6 -15 5 -6 -5z"/>
<path d="M4350 3536 c0 -2 7 -7 16 -10 8 -3 12 -2 9 4 -6 10 -25 14 -25 6z"/>
<path d="M3700 3519 c0 -5 5 -7 10 -4 6 3 10 8 10 11 0 2 -4 4 -10 4 -5 0 -10
-5 -10 -11z"/>
<path d="M3009 3499 l-24 -20 30 17 c39 24 40 24 28 24 -6 0 -21 -9 -34 -21z"/>
<path d="M4497 3505 c3 -8 9 -12 14 -9 12 7 11 11 -5 17 -10 4 -13 1 -9 -8z"/>
<path d="M4522 3490 c-29 -17 -57 -28 -63 -25 -5 4 -8 1 -7 -7 2 -7 -5 -12
-14 -12 -10 1 -16 -2 -13 -6 7 -11 -73 -52 -87 -44 -7 4 -8 3 -4 -4 8 -14 -50
-46 -66 -36 -7 4 -8 3 -4 -4 8 -14 -30 -36 -46 -26 -6 4 -8 3 -4 -4 8 -14
-170 -116 -185 -106 -7 4 -9 3 -6 -4 4 -5 -13 -22 -37 -36 -49 -29 -61 -32
-50 -14 4 7 3 8 -5 4 -6 -4 -9 -11 -6 -16 7 -12 -25 -29 -50 -27 -11 1 -20 -4
-20 -11 0 -7 -15 -21 -33 -32 -37 -23 -46 -25 -36 -8 4 6 3 8 -2 5 -5 -3 -11
-18 -12 -34 -2 -24 5 -32 42 -53 25 -13 43 -27 40 -31 -2 -4 4 -6 14 -5 9 0
16 -5 14 -12 -1 -8 2 -11 7 -7 6 3 24 -1 41 -10 33 -17 40 -28 13 -19 -14 5
-15 4 -4 -4 8 -6 21 -8 29 -4 9 3 13 1 9 -5 -4 -6 19 -10 63 -10 44 0 67 4 63
10 -4 6 0 8 11 4 10 -4 15 -3 11 3 -7 11 52 43 66 35 5 -4 8 -1 7 7 -2 7 5 12
14 12 10 -1 15 3 11 9 -4 6 0 8 11 4 9 -4 15 -3 11 2 -3 5 31 30 74 55 84 48
97 53 85 34 -4 -7 -3 -8 5 -4 6 4 9 11 6 16 -7 12 102 73 116 64 8 -4 9 -3 5
4 -3 6 2 16 13 21 26 14 34 14 25 -1 -4 -8 -3 -10 2 -5 5 5 9 13 9 18 0 5 61
44 135 87 136 80 171 112 148 140 -6 7 -17 11 -24 8 -8 -3 -61 22 -119 54 -58
33 -115 60 -127 60 -13 0 -47 -14 -76 -30z m343 -100 c3 -6 -1 -7 -9 -4 -18 7
-21 14 -7 14 6 0 13 -4 16 -10z"/>
<path d="M4460 3506 c0 -2 7 -9 15 -16 9 -7 15 -8 15 -2 0 5 -7 12 -15 16 -8
3 -15 4 -15 2z"/>
<path d="M4750 3500 c0 -5 5 -10 11 -10 5 0 7 5 4 10 -3 6 -8 10 -11 10 -2 0
-4 -4 -4 -10z"/>
<path d="M4750 3470 c-9 -6 -10 -10 -3 -10 6 0 15 5 18 10 8 12 4 12 -15 0z"/>
<path d="M3549 3433 c-13 -16 -12 -17 4 -4 16 13 21 21 13 21 -2 0 -10 -8 -17
-17z"/>
<path d="M3496 3407 c-16 -12 -16 -13 3 -13 11 0 18 3 15 7 -2 4 2 10 8 12 7
3 8 6 2 6 -5 1 -18 -5 -28 -12z"/>
<path d="M5138 3396 c3 -5 -2 -6 -12 -3 -11 4 -15 3 -10 -4 4 -8 -1 -9 -17 -4
-17 4 -20 3 -10 -3 16 -12 -3 -27 -21 -16 -7 5 -8 3 -3 -6 6 -10 4 -12 -9 -7
-10 4 -15 3 -11 -3 8 -12 -52 -43 -67 -34 -6 4 -8 3 -4 -4 3 -6 -7 -19 -24
-28 -30 -18 -37 -34 -22 -48 4 -4 7 -13 7 -19 0 -7 7 -12 15 -13 35 -2 41 -5
35 -14 -4 -6 1 -7 11 -3 11 4 15 2 11 -4 -4 -6 1 -10 10 -9 10 0 18 -5 18 -13
0 -8 7 -16 15 -18 13 -4 13 -3 0 6 -33 23 6 9 59 -21 54 -32 142 -47 138 -24
-1 4 4 11 12 14 9 3 11 0 6 -8 -5 -9 -4 -11 4 -6 6 4 9 11 7 15 -8 12 72 53
86 45 7 -4 8 -3 4 4 -11 19 32 36 52 20 15 -11 15 -11 4 3 -10 14 -8 19 13 33
33 22 32 33 -10 57 -19 12 -32 26 -28 32 3 6 1 7 -5 3 -6 -4 -25 0 -41 9 -21
11 -29 21 -26 35 2 12 0 18 -6 15 -5 -4 -7 -11 -4 -16 10 -16 -6 -10 -60 21
-36 21 -64 29 -88 28 -19 -2 -33 -7 -29 -12z"/>
<path d="M5240 3406 c0 -2 7 -9 15 -16 9 -7 15 -8 15 -2 0 5 -7 12 -15 16 -8
3 -15 4 -15 2z"/>
<path d="M5286 3383 c-6 -14 -5 -15 5 -6 7 7 10 15 7 18 -3 3 -9 -2 -12 -12z"/>
<path d="M3093 3375 c0 -8 4 -12 9 -9 5 3 6 10 3 15 -9 13 -12 11 -12 -6z"/>
<path d="M3526 3381 c-4 -5 -2 -12 3 -15 5 -4 12 -2 15 3 4 5 2 12 -3 15 -5 4
-12 2 -15 -3z"/>
<path d="M5380 3346 c0 -2 7 -7 16 -10 8 -3 12 -2 9 4 -6 10 -25 14 -25 6z"/>
<path d="M4850 3320 c-12 -7 -10 -9 7 -7 12 0 19 5 17 9 -6 10 -6 10 -24 -2z"/>
<path d="M4148 3313 c7 -3 16 -2 19 1 4 3 -2 6 -13 5 -11 0 -14 -3 -6 -6z"/>
<path d="M5523 3307 c0 -7 9 -13 19 -13 10 0 18 1 18 3 0 1 -8 7 -18 12 -13 7
-19 6 -19 -2z"/>
<path d="M5450 3286 c0 -2 8 -10 18 -17 15 -13 16 -12 3 4 -13 16 -21 21 -21
13z"/>
<path d="M4734 3254 c-18 -14 -18 -15 4 -4 12 6 22 13 22 15 0 8 -5 6 -26 -11z"/>
<path d="M4049 3233 c-13 -16 -12 -17 4 -4 16 13 21 21 13 21 -2 0 -10 -8 -17
-17z"/>
<path d="M4740 3230 c-9 -6 -10 -10 -3 -10 6 0 15 5 18 10 8 12 4 12 -15 0z"/>
<path d="M5449 3213 c-13 -16 -12 -17 4 -4 9 7 17 15 17 17 0 8 -8 3 -21 -13z"/>
<path d="M4773 3180 c-12 -5 -31 -7 -42 -5 -11 2 -23 0 -26 -5 -3 -5 5 -7 17
-5 22 4 22 4 4 -10 -25 -19 -32 -19 -40 0 -3 8 -10 15 -16 15 -6 0 -4 -7 4
-16 9 -8 16 -17 16 -19 0 -2 -29 -19 -63 -39 -35 -19 -68 -41 -74 -48 -14 -19
-24 -50 -14 -44 14 9 102 -44 95 -56 -4 -7 -2 -8 4 -4 16 10 74 -22 66 -36 -4
-7 -3 -8 4 -4 6 4 25 0 42 -9 32 -17 41 -31 13 -20 -12 4 -15 3 -8 -4 7 -6 25
-6 55 0 25 6 53 11 62 12 9 1 15 4 12 8 -2 4 36 30 85 58 109 63 123 77 96 98
-11 8 -19 19 -17 24 1 6 -2 8 -8 4 -12 -7 -142 63 -136 74 3 4 0 13 -6 21 -8
12 -9 12 -4 -2 7 -23 4 -22 -41 2 -41 22 -48 23 -80 10z"/>
<path d="M3480 3166 c0 -3 9 -10 20 -16 11 -6 20 -8 20 -6 0 3 -9 10 -20 16
-11 6 -20 8 -20 6z"/>
<path d="M4586 3107 c3 -10 9 -15 12 -12 3 3 0 11 -7 18 -10 9 -11 8 -5 -6z"/>
<path d="M3810 3100 c-9 -6 -10 -10 -3 -10 6 0 15 5 18 10 8 12 4 12 -15 0z"/>
<path d="M5110 3106 c0 -2 7 -7 16 -10 8 -3 12 -2 9 4 -6 10 -25 14 -25 6z"/>
<path d="M4446 3087 c-16 -12 -16 -13 2 -13 10 0 19 6 19 13 0 7 -1 13 -2 13
-1 0 -9 -6 -19 -13z"/>
<path d="M5075 3090 c-3 -6 1 -7 9 -4 18 7 21 14 7 14 -6 0 -13 -4 -16 -10z"/>
<path d="M5090 3071 c0 -6 4 -13 10 -16 6 -3 7 1 4 9 -7 18 -14 21 -14 7z"/>
<path d="M4335 3020 c-3 -6 1 -7 9 -4 18 7 21 14 7 14 -6 0 -13 -4 -16 -10z"/>
<path d="M5076 3002 l-19 -27 24 22 c12 12 21 24 18 27 -2 2 -13 -8 -23 -22z"/>
<path d="M4370 2960 c7 -4 -19 -25 -69 -54 -84 -48 -97 -53 -85 -34 4 7 3 8
-5 4 -6 -4 -9 -11 -6 -16 3 -4 -6 -15 -20 -24 -34 -22 -31 -42 6 -62 22 -11
28 -18 20 -24 -9 -5 -8 -9 4 -13 9 -4 13 -3 10 3 -10 16 2 12 60 -21 31 -18
52 -35 48 -41 -3 -7 -1 -8 5 -4 6 4 25 0 41 -9 45 -23 74 -19 140 20 63 37 77
42 65 23 -4 -7 -3 -8 5 -4 6 4 9 11 6 16 -6 10 71 55 94 55 16 0 22 51 6 52
-23 1 -155 85 -148 95 3 7 1 8 -5 4 -6 -4 -30 3 -52 14 -37 19 -148 37 -120
20z"/>
<path d="M4654 2925 c1 -8 6 -18 11 -22 4 -4 5 -3 2 4 -4 6 -2 13 5 15 8 3 6
6 -4 10 -10 4 -15 2 -14 -7z"/>
<path d="M4566 2917 c3 -10 9 -15 12 -12 3 3 0 11 -7 18 -10 9 -11 8 -5 -6z"/>
<path d="M4156 2902 c-3 -5 1 -9 9 -9 8 0 12 4 9 9 -3 4 -7 8 -9 8 -2 0 -6 -4
-9 -8z"/>
<path d="M4595 2900 c-3 -6 1 -7 9 -4 18 7 21 14 7 14 -6 0 -13 -4 -16 -10z"/>
<path d="M4668 2882 c-16 -17 -16 -18 1 -18 9 0 18 8 18 18 2 21 2 21 -19 0z"/>
<path d="M4166 2762 c-3 -5 1 -9 9 -9 8 0 15 4 15 9 0 4 -4 8 -9 8 -6 0 -12
-4 -15 -8z"/>
<path d="M4624 2722 c3 -5 0 -13 -6 -15 -9 -4 -10 -6 -1 -6 17 -1 25 16 12 25
-7 4 -9 3 -5 -4z"/>
<path d="M4290 2685 c-11 -13 -10 -14 4 -9 9 3 16 10 16 15 0 13 -6 11 -20 -6z"/>
<path d="M4556 2683 c-6 -14 -5 -15 5 -6 7 7 10 15 7 18 -3 3 -9 -2 -12 -12z"/>
</g>
</svg>
